<svg version="1" xmlns="http://www.w3.org/2000/svg" width="5860" height="5860" viewBox="0 0 4395.000000 4395.000000"><path d="M656.5 164.1c-3.3.5-8.7 1.8-12 2.8-3.3 1.1-9.3 2.7-13.4 3.7-7.7 1.8-13.9 5.4-26.8 15.6-8.8 6.9-12.8 12-15.8 19.8-3.6 9.5-8.5 29.4-8.5 34.9-.1 5.8-1.5 12.1-4.1 17.7-1.1 2.4-2.4 7.7-2.9 11.6-1.8 13.1-2.9 19.2-4.5 24.2-.8 2.7-1.5 6.5-1.5 8.3 0 1.9-1.8 10.5-3.9 19.1-2.2 8.7-5.1 21.5-6.6 28.6-1.5 7.1-3.9 17-5.5 22-1.5 5-3.1 12.4-3.4 16.5-.4 4.1-1.9 10.4-3.2 14-1.8 4.7-2.6 9.1-2.9 15.6-.3 6.8-1 10.5-2.9 15.2-1.5 3.7-2.8 9.2-3.2 13.5-.3 4-1.7 12-3 17.8-5.2 23.4-7.3 33.8-7.8 39-.3 3-1.7 8.6-3 12.5-1.8 4.9-2.6 9.1-2.6 13.9 0 5.2-.7 8.6-2.7 13.5-1.9 4.9-3 10.1-3.9 19.6-.7 7.1-2.5 18.2-3.9 24.5-1.6 6.7-2.9 15.9-3.2 22-.3 7.1-1.3 13-2.9 18.3-1.7 5.7-2.4 10.1-2.4 16.3 0 5.9-.8 11.7-2.5 18.6-1.5 5.5-4.8 21.1-7.4 34.7-3.3 16.8-5.5 25.8-7 28.3-1.4 2.2-3 8.2-4.2 15-1.1 6.2-2.8 14.7-3.9 18.8-2.3 9.4-4.7 24.1-5.5 34.5-.4 4.4-1.8 11.3-3.1 15.4-2.4 6.9-3.8 13.7-7.9 38.1-1.8 10.3-3.1 16.2-7 31.5-3.1 12.3-8.1 37.1-9 44.5-.3 3-1.9 11.3-3.5 18.5-1.6 7.1-4 20.9-5.5 30.5-1.4 9.6-3.3 20.4-4.2 24-.8 3.6-2.1 9.6-2.9 13.5-.7 3.8-3 12.8-5 20-3.3 11.8-3.6 14.4-4 28.2-.3 13.4-.6 16.1-2.9 22.5-4.8 13.2-10.4 32.2-11.5 39.3-.7 3.8-2.1 10.6-3.2 15-1.3 5-2.3 13.8-2.8 23.5-.9 16.2-1.5 19.3-5.5 28.5-1.8 4.1-2.5 7.3-2.5 12.3 0 3.7-.7 9.6-1.4 13.2-.7 3.6-1.2 7-.9 7.6.7 1.8-2.6 24.1-5.2 35-1.3 5.6-2.9 13.7-3.4 18-.5 4.4-1.7 9.7-2.7 11.9-.9 2.2-2 8-2.4 13-.8 8-2.7 21-6 39-.6 3.3-1.5 13.2-2 22-.6 11.5-1.5 17.8-2.9 22.3-1.2 3.5-2.5 10.3-3.1 15-1.1 9.4-4.2 23.6-6.4 29.2-3.5 9-6.5 24.8-6.6 34.4 0 4.4-.6 10.5-1.4 13.5-3.4 13.3-3.9 15.9-3.7 20.6.2 6.4-3.2 23.8-6.5 33.5-3.5 10.2-5.4 19.3-5.4 26.5 0 10-3 36.5-5.1 44.7-1 4.2-1.9 9.5-1.9 11.9 0 4.2-2.4 21-6 41.9-1.1 6.3-2.1 12.8-2.4 14.5-.2 1.6-1.2 5-2.1 7.5-1.2 3.3-1.8 8.7-2 20-.4 15.9-1.7 26.6-4.1 33.2-.9 2.6-1 4-.2 4.4 1.8 1.1.2 7.8-4.1 16.8-2.2 4.7-4.1 8.9-4.1 9.1 0 .3-1.7 4.2-3.8 8.8-2.1 4.5-5.1 11.7-6.6 15.9l-2.8 7.8h-7.5c-4.4 0-8.5.6-10.1 1.4-6.8 3.5-25.4 20.8-29.7 27.5-1.5 2.5-4.6 6.5-6.9 9-2.3 2.5-5.8 6.8-7.8 9.6-2 2.7-5.3 6.6-7.2 8.4-2 1.9-3.6 4.3-3.6 5.3s-1.7 7.1-3.9 13.6c-2.1 6.4-4.2 14.4-4.5 17.7-.9 7.9-4.1 19.5-6.6 24.2-3.2 6-2.7 17.6 1.4 35.3 6.6 28.3 12.4 43 20 51 2.3 2.5 6.6 7.5 9.4 11.1 5.2 6.6 7.1 7.8 15.7 9.2 2.5.3 2.7-1.2-4 26.7-2.9 12.4-7.9 33.7-11 47.5-3.1 13.7-6.5 28.9-7.6 33.6-2.8 12.7-7.7 47.7-8.4 61.4-.7 12.7-3.3 33-6 45.5-.9 4.1-3.1 20.1-5 35.5-1.9 15.4-4.8 35.7-6.4 45-7.7 44.4-10.1 59.6-12.6 79-1.4 11.5-3 23.9-3.5 27.5-1.5 11.1-4.9 30-7.4 40.5-1.3 5.5-2.7 14.6-3 20.1-.7 12.4-2.4 21.6-8.1 44.4-2.4 9.6-6.4 28.5-8.9 42-4.6 24.7-6.8 35.3-12.6 59.9-2.9 12.3-4.5 22.2-10 60.6-1.1 7.7-2.2 14.5-2.5 15.2-.2.6-1.3 9.6-2.5 19.9-1.2 10.3-2.8 20.6-3.6 22.8-.8 2.3-2.4 8.8-3.5 14.6-1.1 5.8-2.7 13-3.4 16.1-1.5 5.6-7.1 38.2-11.9 68.5-1.5 8.9-3.5 26.5-4.6 39-1 12.6-2.8 29.4-4 37.4-1.1 8-2.7 25.1-3.5 38-2.4 38.4-5.4 56.4-13.6 81.7-2.2 6.8-4.6 15.5-5.4 19.5-.8 4-2.1 10-2.9 13.3-.8 3.3-3.4 15.7-5.6 27.5-6.4 33.4-8.9 43.6-13.5 56.1-5.4 14.4-7.4 29.1-7.6 55.9-.3 30.9-3.3 52.3-10.9 77-2.3 7.2-3.8 13.4-3.6 13.9.5.8-7.6 37.9-9.2 42.2-1.7 4.5-9.1 39.3-10.1 47.9-.6 4.7-1.2 16.6-1.3 26.5-.2 16.5 0 18.5 2.1 24 3.4 9 4 13.3 5.1 33 1.6 30.7 2.8 44.9 4 48 .7 1.6 1.6 8 2 14.2 1 14.9 2.3 16.8 18.5 25.7 2.8 1.6 5.4 3.4 5.8 4.2 1 1.7 19.1 10.9 26.6 13.5 7.5 2.6 34 8.6 44.1 9.9 4.7.6 17.7 1.3 29 1.7 14.1.4 21.7 1 24.5 2 2.2.8 7.1 2.1 11 2.9 3.8.7 9.2 2 12 2.8 2.7.8 9.3 1.7 14.5 2.1 10.9.7 18.7 1.7 35.2 4.5 12.7 2.2 16.4 3.3 19 5.7 1.1 1 6 1.9 15 2.9 21.7 2.2 29.1 3.4 54.3 8.6 17.9 3.7 25.3 4.8 28.9 4.4 6-.7 13.6 1.2 25.5 6.1 12 5 26.5 8.9 48.6 13.3 3.3.7 12.1 3.2 19.6 5.5 12.5 4 14.9 4.5 30.5 5.5 9.3.6 21.9 1.8 27.9 2.5 6.1.8 18.2 1.9 27 2.5 22.3 1.5 37.5 3.5 55 6.9 21.7 4.3 22.4 4.6 25.4 10.6 1.5 3 6 8.5 11.2 13.6 5.9 5.8 10.4 11.4 13.8 17.1 5.1 8.6 6.4 9.7 13.5 11.3 1.7.3 5.9 2.4 9.6 4.5 14.9 8.9 27.2 11.8 52.5 12.2 16.6.3 19.8-.5 21.1-5.8.5-1.9 2.6-3.5 8.8-6.6 10.4-5.2 27.3-15.4 30.8-18.6l2.6-2.4 11.9 2.5c6.5 1.4 19.9 3.9 29.8 5.6 17.1 2.9 23.7 4.4 26 6.1.9.7 5.3 1.3 19.5 2.6 11.1 1 22.6 2.5 27.5 3.4 2.8.5 19.4 2.4 37 4 17.6 1.7 33.9 3.5 36.1 4 2.3.5 10.4 1.6 18 2.5 7.7.8 17.3 2.2 21.4 3 7.6 1.5 18.4 3.1 40.5 6 16.4 2.2 33.2 5.4 37.5 7.1 4 1.7 20.7 5 46.5 9.3 9.9 1.6 23.4 4.6 30 6.6 6.6 2 14.9 3.8 18.5 4 29 1.7 65.9 7.2 94.2 13.9 14.3 3.4 28 5.8 35.3 6.1 3.3.2 8.9.6 12.5 1 10.2 1 32.1-1.3 47.6-5 6.7-1.6 7.4-2.1 11.4-7.1 4.3-5.4 4.3-5.4 9.9-5.4 3.1.1 7.4.8 9.6 1.6 10.5 4.1 14.6 5.2 21.5 5.9 10.4.9 34.9 6.1 44.7 9.5 12.2 4.2 35.2 8.4 45 8.1 6.8-.2 9.7.3 17.1 2.8 4.8 1.6 11.4 3.4 14.6 4 3.1.6 9.2 2.1 13.4 3.5 4.2 1.3 11.5 2.7 16.2 3.1 4.7.4 11.2 1.3 14.5 2.1 3.3.7 9.7 1.4 14.3 1.4 6.9 0 10.1.6 18.5 3.5 11.7 4 28.3 7.2 44.2 8.4 6.1.5 13.7 1.6 17 2.4 3.3.9 9.9 2.3 14.6 3.1 4.7.9 11.2 2.5 14.5 3.6 3.2 1.1 10.8 2.5 16.8 3 6.1.6 16.5 1.5 23 2.1 6.5.6 15.1 1.9 19 3 29.9 8.1 38.8 10 49 10.9 10.5.9 28.2 4 30.5 5.5 1.7 1 25.3 7.5 27.4 7.5 4.2 0 34.7 5.3 43.7 7.5 17.4 4.4 39.4 8.3 50.5 8.9 18.4 1.1 29.4 2.6 44 6.1 19.7 4.7 35.2 7.3 47.9 8 13.3.7 32.1 4.5 42 8.5 7.5 3 9.1 3.2 40.4 6 6.3.5 13.9 1.6 17 2.4 3.2.8 10.2 2.5 15.7 3.7 5.5 1.1 12.1 3 14.8 4 3.2 1.3 8.5 2.1 15.5 2.5 15.3.8 38.4 4.2 47.2 6.9 12.6 3.9 22 6.2 32.5 8 17.1 2.9 37.4 7.3 51 11 10.7 2.9 15.6 3.7 27.4 4.3 10.6.6 14.6 1.2 15.5 2.2.6.8 2 2 3.1 2.6 1.1.6 2.1 2.1 2.3 3.4.6 3.9 11.1 12.5 23.8 19.4 16.7 9.1 21.4 10.7 36.4 11.7l12.5.8 13 6.6c7.2 3.6 17 7.7 22 9 8.9 2.6 28.2 5.4 51 7.5 17.1 1.6 20.7 2.3 76 14.5 6.1 1.3 18.4 3.3 27.5 4.5 45.4 5.7 63.3 8.8 79.5 14 16.8 5.4 17.8 5.6 39 8.5 10.5 1.4 21.5 3.2 24.5 4.1 3.2.9 12.4 1.9 22 2.3 15.3.7 17.3 1.1 27.5 4.5 15.1 5.1 28.5 8.2 44.9 10.6 7.7 1.1 16.7 2.7 20 3.4 11.7 2.8 24.2 4.6 37.8 5.5 10.9.8 14.9 1.5 19.7 3.6 3.3 1.4 6.7 2.5 7.5 2.5 1 0 1.4 1.3 1.4 4.8 0 6.4 2.6 11.4 10.3 20.4 7.1 8.2 20.7 21.7 25.6 25.5 1.8 1.4 6.7 3.7 11 5.3 4.3 1.5 11.6 4.2 16.3 6 4.7 1.7 11 3.5 14 4s10 1.9 15.5 3c12.5 2.7 19.1 2.2 30.4-2.1 16.7-6.4 23-10.1 34.3-20.3 5.8-5.4 10.8-10.6 11.1-11.6.3-1.4 1.9-1.9 6.6-2.5 7.5-.9 23.8.2 31.1 2.1 3 .7 10.2 1.8 16 2.4 15.8 1.7 33.6 4.9 39.1 7 4.6 1.9 25.7 6 30.4 6 1.3 0 6 1.1 10.6 2.5 37.3 11.2 40.5 12 54.9 13.5 11 1.2 22.8 3.6 34.5 7 4.7 1.4 12.3 2.3 23 3 12.9.7 18.2 1.5 27 3.9 5.9 1.7 14.9 3.6 19.9 4.1 19.6 2.3 24.7 3.4 41.6 9 9.6 3.2 21.8 6.6 27 7.5 13.5 2.3 30.6 6.2 44.1 10.1 6.5 1.9 16.1 3.8 21.5 4.4 13.3 1.4 28.4 3.8 32 5 4.9 1.6 21.5 4 28.4 4 7.2 0 18.2 2 27.5 5 4.7 1.6 10.7 2.2 28.5 2.9 23.9.9 24.7.8 34-3.9 2.4-1.2 6.5-2.8 9.1-3.6 2.6-.8 6-2.7 7.6-4.2 5.6-5.6 10.6-11.8 13.5-16.7 2.8-4.8 6-9.5 13.3-19.5 1.8-2.5 4.7-7.2 6.4-10.5 1.8-3.3 4.3-7.8 5.6-10 3.4-5.5 14.1-30.2 15-34.5.4-1.9 1.6-5.3 2.6-7.6.9-2.3 2.1-6.4 2.5-9 .4-2.7 1.7-6.8 3-9.1 1.2-2.4 3.3-8.7 4.5-14.1 1.2-5.3 3-12.9 4.1-16.7 1-3.9 2.3-13.3 2.9-21 1.4-19.8 3.7-37.1 5.9-43.5 1.7-5.2 4.3-17.5 7.1-34 .7-4.1 1.2-9.9 1.1-12.8-.2-6.2 2.7-20 6.8-32.7 4.5-13.9 6.8-24 8-36 1.8-17.2 4.9-34.2 8-44 3.9-12.4 6.6-25.9 8-39.5 1.6-15.2 5.3-33.8 9.1-45.2 4.4-13.3 6.7-23.9 7.9-35.9 1.5-14.2 4.6-32.5 7.4-43.4 2.4-9.1 7.9-36.9 9.1-46 1.3-10.1 5.8-28.4 10.5-42.5 4.9-14.7 6.9-22.3 9.6-36.2.8-4.3 2.1-9.6 2.9-11.8 2.2-6.1 4.6-18.4 5.5-28.5.5-5 2-13.7 3.4-19.5 1.3-5.8 3.4-17 4.5-25 1.2-7.9 4.8-25 8-38 5.1-20.6 6.1-25.9 7.5-42.7 1.7-19.4 3.1-28.3 6.5-42.1 2.5-9.8 2.8-12.2 4.6-32.2 1.4-16.2 4.2-29.9 9-45.1 3.2-10.2 7.5-29.6 7.5-33.8 0-1.9.9-6.4 1.9-10 2.4-8.2 6.1-25.2 6.1-28.3 0-1.3.7-3.7 1.6-5.3.8-1.7 2-6.8 2.5-11.5 1.9-16.5 5-36.6 6.4-41 1.5-4.8 6-23.4 7.6-31.4.5-2.7 1.3-11.5 1.8-19.5.9-12.8 1.7-17.5 7.1-38.3 6-23.4 8.9-39.7 9-49.1 0-5.7 2.6-18.9 8.5-42.7 2.4-9.6 4.6-20.2 5-23.5 1.9-17.9 6.2-41.8 11.9-65.5 1.4-5.8 3.9-18.4 5.6-28 5.4-30.9 9-47 13.6-61.2 6.5-20.4 10.5-39.5 12.3-59.1.5-4.8 1.1-9 1.4-9.3.3-.3 3.7.1 7.6 1 10.6 2.4 13.5 2.1 17.8-1.7 5-4.3 10.1-8 13.8-10 4.7-2.5 18.3-14.8 20.8-18.8 1.2-2 3.6-5.8 5.4-8.5 8.9-13.6 10.1-16.2 11.8-23.9.9-4.4 2.8-13.2 4.2-19.5 1.3-6.3 3-14.9 3.8-19 4.3-24.3 5.6-30.8 6.5-33.4.5-1.6 1-7.3 1-12.7 0-11.5-2.5-20.6-9.6-35.2-7.2-14.9-10.2-19.5-17.4-26.7-7-7.1-8.3-7.7-17.5-8.2-2.4-.2-3.9-.8-3.8-1.4.1-.7.8-6.2 1.5-12.2l1.2-11-3.5-6.9-3.6-6.8 1.8-7.4c.9-4 2.6-9.4 3.7-12 3.1-7.1 4.5-13.9 4.8-22.6.2-4.4 1-11.6 1.8-16s2.7-15.4 4.1-24.5c1.4-9.1 3.3-20.3 4.1-24.9.8-4.7 2.2-14.7 3-22.4 1.6-15.1 3.6-28 5.8-36.7 2.7-10.3 4.8-19.5 7.1-30.5 1.3-6.1 2.8-13 3.3-15.5.6-2.5 1.8-8.6 2.7-13.5.9-5 2.5-12.2 3.5-16 1.1-3.9 3.7-16.5 6-28 2.3-11.6 5.6-26.4 7.5-33 4.4-16 4.4-15.6 5.5-29.2.5-6.5 1.9-15.5 3-20 1-4.4 2.9-14.8 4-23 2.5-17.6 4.3-27.3 7.7-40.8 1.3-5.5 3.8-19.6 5.4-31.4 1.6-11.7 3.8-24.9 4.9-29.3 1.2-4.3 3.1-15.2 4.5-24.1 1.5-10.4 3.6-20.2 5.9-27 3.9-11.9 4.3-14.3 5.1-30.2.7-13.2 1.9-20 5-28 2.8-7.4 4.5-17.8 4.5-28.5 0-7.9 3.5-27.1 6.5-35.5.7-2.2 1.7-6.7 2-10 .3-3.3 1.5-9.2 2.5-13 1.1-3.9 3.3-15.6 5-26 4.2-26.3 4.8-29.9 5.9-38.6.6-4.2 1.7-9.6 2.4-12 .8-2.4 2.4-7.8 3.7-11.9 1.3-4.1 2.6-8 3-8.5.4-.6 1-4.2 1.4-8 .3-3.9 1.3-10.4 2.1-14.5s2.9-17 4.6-28.5c1.7-11.6 3.9-24.8 4.9-29.5 1-4.7 2.3-12.1 3-16.5 1.4-9 7.7-36.5 12-52.5 2.4-8.7 11.3-59.8 13.5-77.5.3-2.8 1.3-6.6 2-8.5.8-1.9 3.1-15.4 5-30 4.1-30 8.1-54.9 9.5-58.2 1.7-4.3 5.4-25.5 10.5-61.3 4.6-32.2 8.1-52.2 10.5-61 2.5-8.9 4.9-21.8 10-53 2.3-13.8 5.4-31.8 7-40 6.2-32.3 10-60.5 12-89 2.4-33.7 5.3-49.2 14.6-77.2 5.1-15 8.1-30.2 8.9-44.3.4-6.9 1.6-17 2.6-22.5 4-21.1 1.8-34.7-8.4-51.7-6.9-11.4-14.5-16.6-32.8-22.4-4.6-1.4-10-3.4-11.9-4.4-1.9-1-6.2-2-9.5-2.4-8.6-.9-20.7-3.4-30-6.1-4.4-1.3-10.5-2.8-13.5-3.4-13.8-2.7-22.4-4.2-34.5-6.1-7.1-1.1-17.9-2.9-24-4-6-1.1-12.9-2-15.3-2-2.3 0-10.2-1.6-17.6-3.5-7.3-1.9-18.9-4.1-25.7-4.9-18.4-2.3-42-6.5-43.5-7.7-.7-.6-1.7-.9-2.1-.6-.7.4-10.7-.9-22.3-2.8-6.2-1-24.2-3.4-34.3-4.6-5.4-.6-20.2-3.7-33-6.8-25.9-6.5-24.4-5.5-24.6-15.6-.1-5-.2-5.2-8.2-12.9-6.9-6.6-9.9-8.6-18.8-12.8-6-2.8-12.4-5.1-14.7-5.2-6.2-.5-17.1-2.6-23.9-4.7-3.3-1-10.7-2.5-16.5-3.4-5.8-.8-12.3-2.1-14.5-2.9-10.3-3.7-25.5-5.7-44-5.9-5.1 0-21.1 2-22.6 2.8-12.5 7.2-14.8 9.6-16.5 16.9-.7 2.7-.8 2.8-5.3 2.2-2.5-.4-10.9-1.6-18.6-2.6-13.6-1.9-62.6-11.3-85-16.4-6-1.4-19.3-3.6-29.5-5s-22.1-3.2-26.5-4c-4.4-.9-12-2-17-2.6-14.7-1.7-14.5-1.6-14.5-5.8 0-1.9-.8-6.3-1.7-9.6-1.3-4.9-2.7-7.1-6.7-11.1-9.3-9.1-29.4-18.6-43.6-20.5-9.1-1.2-16.2-2.8-25.5-5.6-4.4-1.3-12.5-2.9-18-3.4-11.8-1.2-13.6-1.5-27.8-4.2-11.5-2.1-15.1-2.1-30.7.5-13.7 2.3-21.5 7.6-26.2 17.7-2.8 6.1-3.7 6.2-13.2 1.6-4.8-2.4-9.2-3.7-13.6-4.1-3.6-.4-9.9-1.7-14.1-3-6.9-2.2-15-3.2-40.4-5.5-4.9-.4-10.2-1.2-11.7-1.8-1.5-.6-7.3-1.6-12.9-2.2-5.6-.5-11.8-1.4-13.8-2-2-.5-10.6-2.1-19.1-3.5-8.5-1.5-20.8-4.2-27.3-6.1-6.4-1.9-15.3-4.1-19.7-4.9-4.4-.8-11-2.3-14.7-3.4-8-2.3-15.6-3.7-27.3-5-4.7-.6-13.4-2-19.5-3.2-6-1.2-14.1-2.3-18-2.5-3.8-.1-13.9-1.8-22.3-3.8-14.6-3.5-41.4-8.3-59.2-10.6-11-1.4-21.1-3.4-38.5-7.5-28.3-6.7-47.5-10.5-58.1-11.6-6-.6-18.3-2.8-27.4-4.9-17.3-4.1-28.9-6.4-66-13-12.4-2.3-27.9-5.1-34.5-6.4-50-9.9-73.7-14.9-84.2-17.5-7.1-1.8-14.8-3.1-18.5-3.1-3.5 0-13-1.2-21.3-2.7-8.2-1.5-19.5-2.8-25-2.9-7.4-.1-13.2-1-22.2-3.3-6.8-1.7-16.6-4-21.9-5.1-5.3-1.1-9.9-2.2-10.3-2.5-.5-.2-2.5-3.8-4.7-7.9-2.5-4.9-6-9.7-10.1-13.7-3.5-3.4-6.3-6.6-6.3-7 0-.4-6.1-3.7-13.5-7.4-11.8-5.9-14.7-6.9-23.2-8.2-5.4-.8-14.1-2.5-19.3-3.9-8.1-2.1-21.2-4.6-54-10.5-7.4-1.3-20.4-.1-33.2 3-8.1 2-10.5 3.1-15.7 7-3.3 2.5-8.1 10.9-8.1 14.2 0 1.6.1 1.6-22-1-39.5-4.7-86.9-14.2-112.8-22.5-28.4-9.2-30.2-9.7-46.2-12l-14.5-2.1-.6-6.5c-.7-9.1-3.2-13.5-11.4-20.3-9.3-7.8-18.8-12.5-27.3-13.6-3.7-.5-8.5-1.6-10.7-2.4-8.6-3.4-19.6-5.6-32.3-6.7-7.3-.6-14.5-1.5-16-2.1-1.4-.6-6.4-1.9-11-3-13.4-3.1-20.7-2.7-52.9 3.2-9.4 1.7-16.2 6.2-19.2 12.6-1.4 2.9-3 5.3-3.5 5.3-3 .1-45.8-10.8-57.6-14.6-20.9-6.7-29.5-8.4-42.4-8.4-7.4 0-14.5-.7-20.7-2-5.2-1.1-12-2-15.1-2-3.9 0-8.5-1-14-3-7.5-2.7-24.2-6-30.8-6-2.5 0-2.7-.4-4.5-9.1-2.4-12.1-4.2-14.5-14.1-19.4-4.5-2.2-9.2-4.7-10.6-5.6-1.3-.9-5.5-2.4-9.3-3.2-9.9-2.1-21.2-5.5-24.7-7.3-1.7-.9-9.2-2.9-16.7-4.4-7.5-1.6-16.5-3.9-20.1-5.1-5.5-1.8-9.5-2.2-25.7-2.6-25.4-.7-34.4.5-43.9 5.7-8.3 4.6-16 12.6-18.5 19-2 5.2-1.7 5.1-13.9 1.5-4.3-1.3-10-2.7-12.7-3-2.6-.4-8.6-1.7-13.3-3-4.7-1.4-16.5-3.8-26.2-5.5-9.7-1.7-21.4-4.2-26-5.6-4.6-1.3-12.8-3.1-18.2-4-9.5-1.4-24.1-4.6-54.4-11.9-16.3-3.9-29-5.9-47.7-7.5-7.1-.7-18.8-2.3-26-3.6-15.9-2.9-36.1-6.1-43.5-7-3-.4-12.7-2.4-21.5-4.5-39.3-9.3-51.4-11.4-73.5-12.4-3-.2-12.5-1.9-21-3.9-14.8-3.5-27.5-5.7-40.4-7.1-6.6-.8-20.8-4.9-30.1-8.8-6.5-2.7-15.8-4.3-24.5-4-9.2.2-27.1-1.7-35-3.7-4.2-1.1-11.6-2.4-16.5-3-5-.5-11.7-1.4-15-2-3.3-.5-9.4-1-13.5-1s-10.2-.7-13.5-1.4c-3.3-.8-14.5-2.6-25-4-40.6-5.6-47.5-6.7-56.6-9-10.2-2.6-31.2-6.2-42.4-7.1-3.8-.3-11.9-1.7-18-3-14.5-3.1-31.5-6.2-39-7-3.3-.4-10-1.6-15-2.7-4.9-1.1-18.4-3.7-30-5.8-11.5-2.2-25.3-4.8-30.5-5.9-5.2-1.2-10.9-2.1-12.6-2.1-1.7 0-12.3-3.1-23.5-6.9-11.2-3.8-22.7-7.2-25.5-7.5-2.9-.4-8.9-1.8-13.5-3.1-4.6-1.4-13.8-3.2-20.5-4-6.7-.9-16.8-2.8-22.5-4.4-27.6-7.8-55.9-14-63.4-13.9-6.8.1-24.4-2.1-26.5-3.2-2.8-1.5-16.4-4-20.8-3.9-2.1.1-6.4.5-9.7 1zm39.4 77.5c13.6 2.3 36.6 5.4 55.7 7.4 4.5.4 9.1 1.3 10.2 1.9 3 1.6 13.4 3.6 31.2 6.1 8.5 1.2 18 2.8 21 3.5 9.4 2.4 34.9 6.4 47.5 7.5 6.6.5 17.4 2.1 24 3.6 6.6 1.4 22.8 4.7 36 7.4s27.7 6.3 32.1 7.9c6.1 2.2 11.3 3.3 20.4 4.1 6.7.5 12.5 1.2 12.9 1.4.4.3 4.5 1 9.1 1.6 4.7.6 21.6 4 37.5 7.5 16 3.5 33.3 7.1 38.5 8 5.2.9 12.4 2.1 16 2.7 3.6.6 11.5 2.6 17.5 4.4 15.3 4.7 38.1 9.6 64 13.9 12.1 1.9 31 5.5 42 8 30.9 6.8 42.3 8.3 84 11 12.7.8 28 2.4 34 3.5s13.3 2 16.2 2c2.9 0 13.5 1.8 23.5 3.9 34.6 7.4 49.4 10.1 74 13.6 25 3.5 68.9 12 80.8 15.5 19 5.7 81.7 20.7 89.5 21.4 3.3.3 13.6.8 23 1.1 18 .7 26.5 1.9 62 9 29.5 5.9 32.9 6.5 48 7.5 13.4 1 44.2 6.8 60.5 11.6 8 2.3 24.6 5.4 37 6.9 3 .3 24.4 5.3 47.5 11 64.8 16 70 17.3 86.6 20.5 8.5 1.6 19.8 4.1 25.2 5.5 6.5 1.6 11.2 2.3 14 1.9 4.2-.5 13.7.9 62.7 9.7 45.9 8.1 66.1 12.4 75.8 16 12.4 4.5 43.4 11.5 70.3 15.8 6.8 1.1 18.2 3.4 25.4 5.1 20 4.8 59 11.1 64.4 10.5 4.3-.6 12.6.4 34.9 4 5.2.8 12.6 1.4 16.5 1.4 4.6 0 13.2 1.3 23.7 3.5 19 4 62.4 11.8 75.2 13.5 4.8.6 14.9 2.9 22.5 5.1 7.6 2.2 19 4.7 25.3 5.6 11.3 1.5 59 11.6 82.5 17.4 6.6 1.6 17 4.1 23 5.5 6.1 1.4 14.6 3.6 19 5 4.4 1.3 9.8 2.4 12 2.3 8.3-.2 72.2 10.3 80 13.2 7.2 2.6 25.7 6.5 42.5 9.1 8 1.1 15.6 2.7 17 3.4 1.4.7 6.9 1.5 12.3 1.9 5.4.4 16 1.8 23.5 3.2 25.7 4.7 51.7 9.2 63.2 10.9 6.3.9 17.6 2.9 25 4.5 7.4 1.5 15.8 3.1 18.5 3.5 2.8.3 10.2 1.9 16.5 3.5 6.3 1.6 19.4 4.5 29.1 6.4 9.7 2 19 4.1 20.5 4.7 1.6.6 7.2 1.7 12.4 2.5s13.8 2.5 19 3.9c5.2 1.3 17.3 3.8 26.7 5.4 9.5 1.7 19.2 3.8 21.7 4.6 2.4.8 9.9 2.2 16.7 3.1 6.8.8 15.8 2.4 19.9 3.4 12 3 23.8 5 29.4 5 2.9 0 9.4 1.1 14.6 2.4 5.2 1.4 15.4 3 22.5 3.6 14.9 1.2 30.7 3 31.6 3.6.3.2 7.8.8 16.5 1.4 8.7.6 21.3 2.1 27.9 3.4 6.6 1.3 16.5 2.7 22 3.1 12.5.8 24 2.8 67.5 11.5 19 3.8 44.9 8.9 57.5 11.4 43.6 8.6 71.8 14.6 79.7 17.1 4.4 1.4 8.8 2.5 9.9 2.5 1.1 0 5.2.9 9.2 2 3.9 1.1 15.8 3.3 26.2 5 21.8 3.5 47.7 8.8 64.5 13.2 16.2 4.2 33 7.6 43.5 8.9 5 .6 21.2 3.5 36 6.5 14.9 3 35.1 6.6 44.9 8 9.8 1.4 21.5 3.3 26 4.4 4.5 1 11 2.2 14.6 2.5 8.1.9 46 7 52 8.5 2.5.6 8.4 1.5 13.3 2 4.8.4 10.6 1.5 13 2.3 2.3.8 9.6 2.3 16.2 3.2 12.6 1.9 51 9.3 100.5 19.5 43.9 9 67.9 13.3 101.5 18 7.7 1 17.2 2.6 21 3.5 3.9.8 22.8 4.2 42 7.6 19.3 3.3 43.8 7.6 54.5 9.5 10.7 1.9 27.6 4.8 37.5 6.4 21.6 3.4 59 12.8 75 18.7 7.2 2.8 12.5 6.9 12.5 9.9 0 .9 1 3.6 2.2 6l2.2 4.4-1.8 14.2c-1 7.9-2.2 17.2-2.6 20.8-2.3 18.9-5.4 39.3-8.2 54-1.7 9.1-3.6 20.2-4.3 24.8-.9 6-2.1 9.4-4 12.2-1.5 2.2-3.6 6.9-4.6 10.5-1.7 6.2-1.7 6.4.1 7 4 1.3 4 2.4 1.5 22.8-1.4 10.8-2.9 21.7-3.5 24.2-.6 2.6-1.5 9.2-2.1 14.7-.5 5.6-1.7 12.9-2.4 16.2-.8 3.4-1.5 8.4-1.5 11.2 0 5.2-.5 8.1-8.1 47.9-5.1 26.7-8.4 44.6-10.4 56-.9 4.9-2.3 9.7-3 10.5-.8.9-2.9 11.4-4.9 24.5-1.9 12.6-5.5 32.2-8 43.5-2.4 11.3-5.4 25.4-6.6 31.5-1.2 6-3.5 16.4-5.1 23-1.6 6.6-3.8 17.2-4.9 23.5-2.6 15-5.4 28.9-7.5 37-.9 3.6-2.1 9.9-2.5 14-.5 4.1-2.2 14.9-4 24-7.3 38.2-12.1 63.5-14.9 79.4-2.3 12.7-3.6 17.5-5.1 19.1-1.7 1.8-2.2 4.3-3 14.1-.9 11.5-8.3 57.6-15.4 96.3-1.9 10.2-4.2 23.5-5.1 29.6-.9 6-2.7 14.4-4 18.5-2.8 9-4.1 15.4-5.5 28-.5 5.2-2.1 14.3-3.4 20.1-3 13.3-8.1 39.9-9.6 50.4-.6 4.4-2.7 13.4-4.6 20-3.7 13.1-5.3 22.9-5.4 31.7 0 3.6-1.3 9.6-3.6 17-1.9 6.2-4.2 16-5 21.8-5.8 42.1-10.7 66.3-14.9 73.5-1.6 2.6-3 7.1-3.6 11-.5 3.7-2.1 10.8-3.5 15.8-1.4 5.1-3 13.7-3.6 19.2-.5 5.5-2.5 19-4.4 30-1.9 11-4.3 25.4-5.3 32-1 6.6-2.2 13.1-2.8 14.5-.6 1.4-1.8 7.9-2.6 14.5-3.1 22.7-5.6 38-7.1 43-.9 2.7-3.6 15.6-6.1 28.5-5.6 29-6.6 33.2-9.8 44.5-1.5 4.9-3.1 13.3-3.6 18.5-1.4 12.9-3.7 28.1-5.5 36.5-.9 3.8-1.6 9.5-1.6 12.6 0 4.3-.6 6.5-2.5 9.3-1.4 2-2.5 4.1-2.5 4.5 0 1.9-6 3.3-11.2 2.7-6.9-.9-17.9-3.4-19.2-4.5-.6-.5-4.2-1.4-8.1-2-3.8-.7-11-2.3-16-3.8-5.3-1.5-12.5-2.7-17.5-2.9-9.7-.5-21.4-2.7-43.2-8.3-8.4-2.2-17.1-4.2-19.3-4.6-2.2-.3-22.9-5.3-46-11-43.4-10.8-55.2-13-74-14-6-.4-12.3-.8-14-1.1-1.6-.2-13.3-.7-26-1-25.3-.6-31.9-1.3-43.3-4.9-4.3-1.3-10.5-2.6-13.8-2.9-3.4-.2-16.2-2.9-28.5-5.9-23.9-5.9-26.2-6.3-40.9-7.2-5.2-.3-12-.8-15-1.1-9-1-38-7.4-44.5-9.9-3.3-1.2-9.8-3-14.5-4-4.7-.9-12-2.5-16.2-3.6-4.3-1.1-14.4-2.8-22.5-3.9-8.2-1.1-18.8-2.7-23.8-3.6-9-1.5-57.3-14-65.6-16.9-7.1-2.6-17.6-4.5-24.2-4.5-9.6 0-22-1.8-35.2-5.1-6.6-1.7-19.2-4.1-28.1-5.5-9-1.3-20.9-3.3-26.6-4.4-5.7-1.1-15-2.4-20.8-2.9-16.9-1.6-42.4-5.8-52.9-8.8-3-.9-7.3-1.7-9.5-1.8-2.3-.1-10.4-1.8-18.1-3.8-7.7-2-18-4.1-23-4.7-4.9-.6-10.1-1.5-11.5-2-1.4-.5-6.1-1.2-10.5-1.5-10.6-.8-11.6-1-36-6.1-11.5-2.4-28-6.4-36.5-8.9-18.4-5.3-26-6.9-40-8.5-5.8-.6-14.8-2.2-20-3.5-20.4-5-56.3-11.6-74-13.5-5.8-.7-16-2-22.7-3.1-6.7-1-21.5-3-33-4.4-11.4-1.4-29.3-4.1-39.8-6-10.4-1.8-21.9-3.6-25.5-4-41.9-3.9-65.2-7.4-88.8-13.5-4.4-1.1-9.8-2-11.9-2-2.2 0-8.9-.9-14.9-2s-12.4-2-14.3-2c-9.4 0-34.8-6.2-51.7-12.6-15.5-5.8-24-7.7-41.4-9.5-6.3-.6-15.3-2.3-20-3.6-4.7-1.4-10.6-3.1-13.1-3.8-4.2-1.2-16.7-2.5-37.4-4-20.6-1.5-31.2-3-45.8-6.6-11.3-2.8-21.4-4.5-35.4-5.9-20.8-2.2-30.3-4.1-60.8-12.1-42.3-11.3-57.3-14.7-66.6-15.4-10.4-.8-19.8-2.9-33.3-7.5-25.8-8.8-49.9-13-83.6-14.5-8-.4-19-1.3-24.5-2.1s-14.9-2.1-21-2.9c-6-.8-15.5-2.3-20.9-3.5-14.1-2.9-42.4-7.5-60.9-10-8.7-1.1-23.6-3.4-33-5-9.5-1.7-24.5-4.1-33.5-5.5-9-1.5-17.5-3.1-18.9-3.6-1.4-.5-11.9-2.8-23.2-5-11.3-2.2-24.8-4.9-29.8-5.9-5.1-1.1-12.5-2-16.5-2-8.7 0-28.2-2.9-42.8-6.3-9.5-2.3-21.7-3.7-42.7-5.2-8.2-.5-14.2-1.7-22.8-4.5-8.3-2.7-17.1-4.4-38-7.5-9.9-1.4-22-3.4-27-4.5-4.9-1.1-12.1-2.4-16-3-8.2-1.2-25.5-5.2-37.5-8.6-10.6-3-42.6-10-50-10.9-3-.4-6.3-1.2-7.3-1.7-1.6-.8-26.8-6.5-40.2-9-2.7-.5-10.6-2.2-17.5-3.8-6.9-1.6-20.1-4.3-29.5-6.1-9.3-1.7-21.9-4.6-28-6.5-16.6-5.2-33.5-8.7-52-10.9-6.5-.8-39.3-7.2-46.9-9.1-3.2-.8-10.4-1.7-16-2-5.5-.3-12.6-.9-15.6-1.4-3-.5-10-1.7-15.5-2.6-5.5-.9-13.1-2.4-17-3.4-22.4-5.6-28.8-7-36-8-24.2-3.1-45.5-7.8-71.5-15.9-6.9-2.2-15.4-4.2-18.9-4.5-3.5-.3-15.2-2.4-26-4.7-22.3-4.6-22-4.5-43.6-10.4-10.9-2.9-18.9-4.5-25.1-4.9-11.6-.7-31.5-3.9-47.4-7.6-6.9-1.6-22.2-4.5-34-6.5-21.3-3.4-32.2-6-49.5-11.4-6.3-2-13-3.2-22.5-4-23.3-2-52-6.2-64-9.3-11.2-2.8-21.8-4.5-43-6.8-15.4-1.6-31-4.6-45.6-8.6-7.1-1.9-16.7-4-21.4-4.5-4.7-.5-13.4-1.8-19.5-2.9-6-1.1-14.7-2.4-19.2-2.9-4.6-.6-12.2-2.2-17-3.6-14-4-36.7-8.3-50.8-9.5-13.6-1.1-38.3-5.5-49.7-8.9-3.7-1.1-11.3-2.2-17-2.6-5.7-.3-15-1.5-20.8-2.5-5.8-1-14.1-2.4-18.4-3-4.4-.7-9.1-1.6-10.5-2.2-5.5-2.1-16.7-3.9-41.6-6.8-24.8-2.9-49.8-7.4-58.8-10.6-2.3-.9-7.3-2.4-11.2-3.4-3.8-1-10.3-2.8-14.3-3.9-4-1.2-13-2.8-20-3.5-7-.8-13.8-1.9-15.2-2.4-1.4-.5-5.7-1-9.7-1-4 0-8.6-.3-10.2-.7-3.9-.8-9.1-6.7-9.1-10.3-.1-1.5-.7-3.8-1.5-5.2-1.9-3.3-1.9-11.5.1-22.5.9-5 1.8-11.3 2-14.1.5-8.9 2.4-17.1 5.4-23.6 1.6-3.5 3.4-9.7 4-13.8.6-4.1 1.8-9.2 2.6-11.4 2.2-5.8 8.5-35.8 12.5-60.1 1.2-7.2 3.7-19.4 5.6-27.3 2.6-10.9 3.9-19.5 5.3-36.5 2.5-28.7 4-36.5 11.1-57.2 6-17.7 6.9-22.8 6.9-42 0-14.7.5-19.6 3.4-36.5 3.1-17.9 3.9-20.6 9-32.1 6.6-14.9 8.1-22.9 7.3-37.4-.7-11 1.2-25.3 5.7-42.7 1.3-5.1 2.9-12.9 3.6-17.3.6-4.4 2.5-13 4.1-19 1.9-6.9 3.2-14.7 3.5-21 .3-5.8 1.8-15 3.5-22 2-8 3.3-16.6 3.9-26 .6-9 1.9-18.1 3.6-25.1 2-7.9 2.8-13.9 2.9-21.9.2-7.2 1.1-15.3 2.8-23.5 1.4-6.9 2.9-15.9 3.2-20 .9-10.8 2.3-18.3 5.2-28 1.3-4.7 2.9-13.2 3.4-19 .5-5.8 2.1-15.7 3.5-22 1.4-6.3 2.9-16 3.4-21.5 1.1-12.3 2.1-16.5 6.5-27.2 3.3-7.7 3.5-9.1 3.4-18.4-.1-8.8.2-10.5 2.4-14.8 4.7-8.8 6-15.5 6.2-30.6.2-11.2.7-16.1 2.8-24.5 1.4-5.8 3.9-18.6 5.6-28.5 1.7-9.9 4-20.4 5.1-23.3 1.5-3.9 2-7.6 2-14.5 0-7.6.6-11.3 3.4-20.8 1.9-6.4 3.7-14.3 4.1-17.5.4-3.2 2.9-14 5.5-23.9 2.7-9.9 6.3-25.9 8-35.5 1.8-9.6 5.1-26.7 7.5-38 4.1-19 5.7-30.6 8.5-61.5 1-12.1 3.4-26.3 7.1-43 1.1-5 2.4-13.7 2.9-19.5.5-5.8 1.4-12.1 1.9-14 .6-1.9 2.1-11.2 3.5-20.5 4-26.7 5.4-34.1 8.1-40.8 1.3-3.4 3.1-9.1 4-12.7.9-3.6 2.3-8.5 3.2-11 1.1-3.2 1.3-6.5.9-11.5-.5-5.7 0-10.2 2.8-24 1.9-9.4 3.8-19.9 4.1-23.5.4-3.6 2.5-13.7 4.6-22.5 2.2-8.8 3.9-18.5 3.9-21.5.1-7.6 1.9-14.3 8.3-30 4.4-11 5.8-13.6 7.8-14.1 5.1-1.5 17.8-.8 31.8 1.7zm1130.6 101.3c3.3 1 11.2 2.9 17.5 4.2 6.3 1.2 14 3.2 17 4.4 6.6 2.7 22.8 7.5 25.3 7.5 2.4 0 24.1 10.6 25.7 12.5 1.6 1.9 5 17.4 4 18-.5.3-7.7-.6-16.1-2-8.4-1.4-17.1-2.5-19.2-2.5-2.1 0-7.3-.9-11.5-1.9-12.1-3.1-39.8-7.9-49.2-8.6-4.7-.4-17.1-2.2-27.6-4.1-10.4-1.8-25.7-4.3-33.9-5.4-8.2-1.1-15-2.2-15.2-2.4-.9-.9 2-5.6 6.4-10.3 2.8-3.1 7.5-6.5 11.3-8.5l6.5-3.3 20-.5c22.5-.6 30.3 0 39 2.9zm359.8 69.5c8.2 2.1 17.6 3.7 23.4 4.1 10.3.7 23.5 3.5 31.6 6.6 2.6 1.1 6.7 1.9 9 1.9 8.8 0 29.3 12.9 32.9 20.8 2.2 4.7 2.4 12.2.3 12.2-2.4 0-28.1-6.8-32.2-8.5-2.1-.9-9-2.5-15.3-3.5-6.3-1.1-16.7-2.8-23-3.9-27.2-4.6-33-5.4-34.3-4.3-1.4 1.2-8.2-.1-22-4.2-9.5-2.8-15.7-3.9-31.4-5.7-5.7-.6-10.3-1.5-10.3-1.9 0-2.9 2.5-6.2 6.2-8.3 4.1-2.4 11.6-4.2 27.8-6.7 4.1-.7 8.2-1.3 9-1.5 6.2-1.2 15.9-.2 28.3 2.9zm377.2 70.6c12.1 2.1 27 5.2 33 6.8 6.1 1.6 13.9 3.2 17.5 3.5 7.7.7 16 3.4 22 7.2 2.3 1.5 6 3.3 8.1 4 4.6 1.7 16 13.3 20.2 20.8l2.9 5-3.3-.6c-1.9-.3-18.2-3.2-36.4-6.6-68.4-12.5-106.8-19.1-110.6-19.1-5.2 0-22.2-3.8-23-5.2-1.3-2 2.4-8.9 6.4-11.8 3.6-2.6 8.3-4.1 24.2-7.4 6.4-1.3 18.8-.2 39 3.4zM3507 660.5c3.6.8 13 2.2 21 3 8 .9 17.2 2.4 20.5 3.5 7.1 2.4 18.4 4.8 27.5 6 8.7 1.1 20.8 5.7 31.1 11.8 9.4 5.6 12.1 8.1 14.2 13.2 1.7 4.1 3.2 12 2.2 12-.3 0-6.1-1.1-12.8-2.6-6.7-1.4-16.7-3.1-22.2-3.9-26.4-3.7-32.2-4.7-46.1-8.4-16.1-4.3-37.6-8.3-54.4-10.1-11.2-1.1-24-3.3-30.3-5.1-4.3-1.2-4.4-2.5-.1-9.1 3.6-5.6 9.9-8.8 20.6-10.4 5-.7 9.3-1.6 9.7-2 .8-.8 11.1.3 19.1 2.1zm390.5 71.6c4.4 1 10.5 2.5 13.5 3.4 3 .8 9.1 2 13.6 2.5 4.6.6 10.2 1.7 12.6 2.6 5 1.7 23.1 5.4 26.9 5.4 1.5 0 6.9 2 12.1 4.4 7.2 3.3 11.1 5.9 16.6 11.2 7.1 6.8 7.2 6.9 7.2 12v5.2l-4.2-1.3c-2.4-.6-11-2.4-19.3-3.9-15-2.6-24.8-4.5-38-7.2-10.4-2.1-47.7-8.2-58-9.4-4.9-.6-11.7-1.9-15-2.9-3.3-1-11.8-3.1-19-4.6-7.1-1.5-13.3-3-13.7-3.4-.4-.3-.3-2.3.2-4.2.8-2.9 2.2-4.4 7.2-7.5 5.1-3.1 7.6-3.9 13.3-4.5 11.2-1.1 35 .1 44 2.2zm-1799 1449.6c8.2 4.3 12.1 11.4 11 20.2-.6 4.4-1.4 6.1-4.5 9.5l-3.9 4.1h-7.8c-7.6 0-7.8.1-8.1 2.5-.8 6.1-4.4 16-6.2 17-4 2.1-11.9.2-12.1-2.9-.3-4.6.4-10.4 2.1-17.6 1-4.4 2.4-12.3 3-17.5 1.2-11.1 2.5-15.6 4.8-17 2.9-1.8 17.2-.6 21.7 1.7zm46.9 7.4c7.7 3.8 8.9 6.1 8.7 16.5-.3 18.9-4.6 33.9-11.4 40-3.9 3.6-4 3.6-10.6 3-8.3-.8-16-4.4-18.5-8.7-2.5-4.3-2.3-16.8.6-31.9 1.7-9.1 2.8-12.3 5.1-15.2 5.3-6.9 16.5-8.5 26.1-3.7zm24.5 8.3l2.3 2.5-2.1 10.8c-2.5 13-2.9 23.2-.7 21.4.8-.7 1.8-2.7 2.1-4.4.4-1.8 1.8-5.2 3.1-7.7 3.4-6.6 5.4-11.9 5.4-14.5 0-3.8 5.8-7.3 10-6 1.3.4 3.1 2.9 4.6 6.3 2.6 5.6 2.6 5.8 1.5 18.7-.6 7.1-1.1 13.9-1.1 15 .1 1.9.1 1.9 1.5.2.7-1.1 1.7-3.8 2-6 .4-2.3 1.5-7.2 2.6-10.8 1-3.6 1.9-8.4 1.9-10.6 0-5.4 2.4-8.3 7.7-9 3.6-.5 4.3-.2 5.8 2.1 1.5 2.2 1.6 3.1.6 5.2-.6 1.4-1.1 3.2-1.1 4.1 0 2-9.4 32.2-11.8 37.7-2.2 5.2-6.6 7.2-12.3 5.5-2.2-.7-5-2.4-6.1-3.8-1.8-2.4-2-3.5-1.4-12.6.4-5.5 1-11.8 1.3-14 1.1-7.3-.6-3.7-8.2 17.4-1.3 3.5-3 7-3.8 7.9-2.2 2.1-10.2.8-13.3-2.3-2.1-2.1-2.4-3.4-2.5-10.2-.1-16.2 0-20.1.7-31.1.6-9.8 1-11.5 2.8-12.8 3-2.1 5.9-1.7 8.5 1zm59.6 8.5c2.2.5 7.8 1.7 12.5 2.6 9.8 2 11 2.7 11 6.5 0 4.4-1.8 5.1-10.7 4.4-7.8-.6-8-.6-8.6 1.7-1.6 6-1.5 6.1 7.6 7.9 7.1 1.4 9.1 4.2 6.2 8.6-1.6 2.6-2 2.6-9 2.2l-7.4-.5-.8 6.1c-1 6.9-1.4 6.5 8.1 8.8 7 1.6 9.2 4 7.3 7.8-.8 1.5-2.3 2.6-3.9 2.8-3.8.5-23.9-3.6-26.6-5.4-2.2-1.5-2.3-1.9-1.7-9.2.4-4.2.9-8.1 1.2-8.5 1-1.7 3.3-16.7 3.8-25.1.3-4.9 1-9.6 1.6-10.3 1.3-1.5 3.7-1.6 9.4-.4zm52.8 9.1c6.8 3.1 8.6 4.9 10.7 11.1 1.6 4.6-.3 12.2-3.9 15l-2.4 1.9 2.8 2.2 2.7 2.1-.7 10.1c-.8 12.9-1.9 14.6-8.5 14.6-6.8 0-8.4-1.8-7.5-8.4.3-2.8 1.1-5.7 1.8-6.4 1.5-1.9-1.9-8.1-5.2-9.4-3.4-1.3-4.7.6-5.5 8.4-.4 3.4-1.4 7.4-2.2 9-1.2 2.4-2.1 2.8-5.4 2.8-4.8 0-7.6-3.3-6.6-7.8.4-1.5 1.1-5.3 1.7-8.5.5-3.2 1.8-10.4 3-16 1.1-5.6 2.2-12.8 2.4-16 .2-3.2.9-6.5 1.6-7.4 2.1-2.4 13-1 21.2 2.7zm-448.7 256.9c.5.5 2.7 1.4 4.9 2.1 7.8 2.5 10.7 5.9 8.5 10-1.2 2.3-5.3 2.6-8.9.6-2.3-1.3-7.1-1-7.1.4 0 .5-.3 1.5-.6 2.3-.4 1.1.8 1.8 4.8 2.7 10.2 2.4 13.2 5.2 10.2 9.7-1.7 2.7-2.7 2.7-11.1.2-4.9-1.5-6-.9-6.5 3.5-.3 2.8 0 3 6.6 5.2 6.9 2.2 8.6 3.5 8.6 6.6 0 3.5-6 6.4-8.4 4.1-1.7-1.8-9-3.2-10.9-2.1-1.4.7-2.7.7-4.3-.1-2.1-.9-2.4-1.7-2.3-6.3 0-8.1 2.8-29.4 4.5-34.9.4-1.6 6.4-4.6 9.5-4.8.8-.1 1.9.3 2.5.8zm35.6 5.5c7.7 2.3 10.3 4.5 9.4 7.9-.9 3.5-3.6 4.1-10.1 2.1-3-1-5.7-1.5-6.1-1.2-.3.4-.7 2.1-.7 4-.2 3.1.1 3.3 3.8 4.1 7.3 1.6 8.5 2.4 8.5 5.6 0 4.4-2 5.5-8.5 4.4-5.2-.9-5.6-.9-5.9 1.1-2.7 14.9-3.5 16.6-7.8 16.6-2.7 0-5.8-3.6-5.8-6.8 0-1.5 1.4-9.2 3-17.2 1.7-8 3-15.6 3-16.9 0-1.4.8-3.3 1.7-4.4 2.1-2.2 6.2-2 15.5.7zm32.8 4.1c6 .8 8 3.6 5.3 7.5-1.3 1.9-2.3 2.1-7.9 1.8-6.7-.3-7.4.1-7.4 4.6 0 1.8 1 2.5 5.6 4 5.9 1.9 8 4.5 6.2 7.9-1.5 2.8-3.8 3.2-8.7 1.4-2.5-.9-4.7-1.4-4.9-1.2-.2.1-.7 3.8-1.1 8-.6 6.3-1.1 8.1-3 9.6-2.8 2.3-7.6 1.9-10.4-1-2.1-2-2.1-2.1-.3-9.3.9-4 2.6-12.2 3.6-18.1 2-11.6 3.6-15.3 7.2-16 2.1-.4 9.9 0 15.8.8zm29 5.7c6.5 1.2 8 2.2 8 5.3 0 3.7-2.4 4.8-8.4 4.1-3-.3-6.1-.9-6.9-1.2-1.2-.4-1.8.5-2.4 3.8l-.9 4.3 5.7 1.1c6.6 1.2 8.9 2.7 8.9 5.9 0 4-2.3 4.9-9.3 3.8-3.4-.6-6.3-1-6.4-.9 0 0-.3 2.3-.5 5l-.3 5 4 .8c9.2 1.8 11.5 2.8 12.1 5.4.5 1.9.1 3.2-1.4 4.6-1.9 2-2.1 2-8.8.3-3.8-1-9.4-1.8-12.4-1.9-4.8-.1-5.6-.4-6.7-2.7-1-2-.9-3.6.2-8 .9-2.9 2.2-11.3 3.1-18.4 1.9-16.5 2.4-17.3 10.6-17.4 3.5 0 8.8.5 11.8 1.1zm35.2 7.4c5.5 2.8 7.8 13.3 3.7 17-1.9 1.7-2.3 1.7-4.7.3-2-1.1-2.8-2.4-3-4.9-.4-3.6-1.5-5-4.3-5-2.2 0-3.6 3.6-5.5 14.5-1.9 10.3-1.9 13.6-.1 14.7 2.9 1.8 5.3.7 7.9-3.7 2-3.3 3.4-4.5 5.2-4.5 6.2 0 5.9 7.6-.8 14.5-3.4 3.6-4.9 4.5-7.7 4.5-4.9-.1-11.2-3.2-14.3-7.2-3.1-4.1-3.3-7.5-1.1-19.4.9-4.5 1.5-8.6 1.4-9-.6-3.4 4.4-12.2 7.8-13.6 2.6-1.1 12 0 15.5 1.8zm24.4 4c14.7 2.2 17.3 3.3 17.4 7.6 0 3.3-2.9 4.9-7.4 4.3l-4.2-.7-2.9 14.9c-3.2 17.1-4.2 19.3-8.7 19.3-4.2 0-6.8-2.5-6.8-6.5 0-3.1 3.1-22.2 4.5-27.5.5-2.2.2-2.7-2.6-3.5-4.3-1.3-5.6-3.6-4.1-6.9 1.4-3.1 1.1-3 14.8-1zm-163.2 30.6c8.6 2.9 10.8 12.6 6.3 27.8-1.3 4.7-3 10.3-3.6 12.6-1.7 6.2-4.2 7.9-11.5 7.9-4.9 0-7.1-.6-10.8-2.8-2.6-1.5-4.9-3.1-5.2-3.6-.5-.7-1.1-6.1-1.9-16.6-.7-9.8 4.6-22.7 10.7-25.9 3.5-1.8 9.6-1.6 16 .6zm26.3 5.4c2.6.5 5.1 7.1 6 15.9l.7 6 1.2-7.3c1.4-8.5 3.5-12.2 6.8-12.2 4 0 4.9 2.2 4.1 10.2-.4 4-1.3 10.4-2.1 14.1-.8 3.8-1.4 8.6-1.4 10.9 0 7.7-5 13.9-9.9 12.3-1.1-.3-2.4-1.7-2.7-3-.3-1.2-1.7-4.4-3-7.1-1.9-3.8-2.4-6.3-2.4-12.2 0-4.2-.2-7.3-.4-7.1-.3.2-1 4.5-1.6 9.4-1.8 14.6-4.9 18.6-11.5 14.5-4-2.4-4.2-4.1-2.1-11.6.8-2.7 2.6-10.5 4.1-17.2 3.7-18 3.5-17.8 14.2-15.6zm89.2 11.8c1.5.8 3.9 3.2 5.4 5.3 3.1 4.4 3.5 10.6 1.6 22.2-.6 3.6-1.3 8.1-1.5 9.9-.4 2.4-1.8 4.2-5.5 7.2-5.7 4.5-8.1 4.9-16.5 2.4-7.8-2.2-9.9-5.6-9.8-15.4.2-12.2 5.4-29.1 9.8-32.2 1.9-1.3 13.6-.9 16.5.6zm-29.9 3.5c1.6 3.1 1.3 3.7-5.3 10.3-3.5 3.5-8.1 8.8-10.4 11.8-4.5 6.1-16.5 18-18.2 18-1.3 0-5.1-3.6-5.1-4.9 0-1.4 7.9-11.1 9-11.1.5 0 3.5-3.5 6.6-7.8 8.1-10.9 15.9-18.2 19.5-18.2 1.8 0 3.2.7 3.9 1.9zm67 5c2.8 1.3 3.6 2.3 3.8 4.8.4 4.4-2.7 5.9-9.1 4.5l-4.6-.9-.9 4.1c-1.1 5-.8 5.6 2.4 5.6 3.1 0 8.4 5 8.4 7.9 0 3.6-3.3 5-8.8 3.6-2.6-.7-5-1.1-5.3-.9-.4.2-.9 2.7-1.3 5.6-1.4 10.6-3.1 12.6-8.9 10.6-4.8-1.7-4.9-3.1-1.2-22.4 1.9-9.9 3.5-18.8 3.5-19.8 0-1.1.7-2.8 1.6-3.7 1.4-1.6 2.7-1.8 9.3-1.3 4.2.4 9.2 1.4 11.1 2.3zm339.4 0c8.9 1.4 12.3 2.3 13.3 3.7 3.2 4.3.5 7.8-5.6 7.2l-4-.3-1 4.5c-.6 2.5-1.7 8.3-2.6 13-3.4 20.1-3.8 21-8.6 21-3.3 0-6.2-2.5-5.5-4.9.5-1.6 2.4-12.2 4.6-25.1.6-3.6 1.3-7.2 1.6-8.1.3-1.1-.8-1.9-4.3-3-4-1.2-4.9-1.8-5.1-4-.3-2.7 2-5.9 4.1-5.9.7.1 6.6.9 13.1 1.9zm-319.3 3.1c1 .6 4.9 1.6 8.5 2.3 4.9.9 7 1.8 8.1 3.4 1.4 2 1.3 2.4-1.1 4.8-2.7 2.7-5.5 3.1-12.1 1.5-2.2-.5-4-.8-4.1-.7-.1.1-.5 1.9-.9 3.9l-.7 3.7 4 .7c5.1.8 9.7 5.2 8.7 8.4-1.1 3.6-4.8 4.6-9.5 2.5-2.4-1.1-4.4-1.5-4.9-.9-.4.5-1.3 3.6-2 6.8-1.3 7.2-3.4 10.6-6.3 10.6-3 0-5.8-2.8-5.8-5.8 0-3.1 3.5-23.6 5.4-31.7 2-8.5 7.2-12.4 12.7-9.5zm354.9 5.5l4 2.6-.2 20.8c-.3 21.9-.8 24.1-5 24.1-4.4 0-5.8-1.8-5.8-7.4 0-5-.2-5.4-2.7-6-1.6-.3-3.8-.8-5-1.2-1.9-.5-2.3 0-3.4 3.6-1.7 5.7-4.7 7.5-10.2 6.4-2.9-.6-4.3-1.5-4.5-2.8-.2-1.1 2.5-8.1 6.1-15.5 3.6-7.5 7.9-16.6 9.6-20.4l3-6.7h5.1c3.7 0 6.1.7 9 2.5zm28.5 2c4.6.9 7.9 2.5 11.7 5.7 2.2 1.9 2.7 3.4 3.3 8.8 1.1 11.7-4.1 16.6-16.8 15.8-5.2-.4-5.8-.2-6.2 1.6-2.9 14.5-3.7 16.6-6.5 16.6-2.5 0-6.8-2-7.3-3.4-.3-.7.1-4.1.8-7.7.7-3.5 2.6-13.2 4.1-21.4 1.5-8.3 2.8-15.2 3-15.4.5-.5 6.7-1.7 8.4-1.6.8.1 3.3.6 5.5 1zM3988 3103.2c-1.3 10.6-2.6 13.6-1.6 3.8 1.4-14.4 2-18.3 2.4-16.1.2 1.4-.2 6.9-.8 12.3zm-1176.1 959.4c.8.7-5.4.2-7.9-.6-1.7-.6-.9-.7 2.5-.3 2.8.3 5.2.7 5.4.9z"/><path d="M742 286c-16.4 3.8-33.4 10.6-39.7 15.7-2.6 2.1-8.1 7.2-12.3 11.3-6.5 6.5-8.4 9.2-13.8 20-6.9 13.9-8.1 19.5-8.1 37 0 13 1.1 21.1 5 34.8 2.7 9.4 4.4 13.3 8.9 20.2 3.1 4.7 6.8 10.6 8.2 13.1 1.5 2.5 3.7 5.3 5 6.2 1.3.8 4 3.2 6.1 5.1 5.1 4.8 21.2 12.5 28.9 13.8 7.1 1.1 23.9.5 28.2-1.1 1.5-.6 5.7-1.1 9.4-1.1 10.9 0 24.4-5.4 32-12.7 12.1-11.7 18.3-17.3 19.1-17.3.4 0 2.1-1.9 3.6-4.3 1.6-2.3 4.5-6.2 6.6-8.7 2.1-2.5 4.5-6.5 5.3-8.8.9-2.4 2.5-5.7 3.7-7.3 5.1-7.2 7.9-18.3 8.4-33.8.4-12.4.1-14.1-5.7-31.9-3.1-9.5-4.4-11.5-15.1-24.2-10.1-11.9-23.9-20.6-37.6-23.6-21.9-4.9-33.3-5.5-46.1-2.4zm39 7.5c10.1 2.3 21.6 6.3 23 8 .7.8 3.6 3 6.5 4.9 7.2 4.8 21.6 22.4 23.4 28.6.5 1.9 2.3 7.8 3.9 13 2.7 9.1 2.8 10 2.1 22.2-.7 12.5-3.3 23-6.5 26.8-.7.9-2.5 4.2-3.9 7.3-3.7 8.6-11.3 18-23.8 29.5-14.4 13.4-15.9 14.4-24.1 17.7-5 1.9-9 2.7-15 3-4.4.1-11.1 1-14.7 1.8-6.2 1.5-13.1 1.5-21.9.1-5.2-.8-20.8-8.8-26.6-13.7-2.9-2.3-7.3-7.6-10-12-2.7-4.3-6.3-10-8-12.7-4.6-7.3-9.2-24.3-10.3-38-1.2-14.3.1-30.8 2.7-35.9 9.6-18.8 11-21 16.7-26.6 11.5-11.5 18-15.7 28-18.4 1.7-.5 4.4-1.4 6-2.1 1.7-.6 7.1-2.3 12-3.6 7.8-2.1 10.6-2.4 21-2 6.6.2 15.4 1.2 19.5 2.1z"/><path d="M737 333.4c-1.9 1.3-5.5 4.5-8 7-2.4 2.5-4.8 4.6-5.3 4.6-2 0-8.7 6.5-8.7 8.4 0 1.2 1.5 6.8 3.4 12.6s4 13.1 4.6 16.2c1.2 6.3 1.9 7.1 7 8.6 6.5 2 14.5 4.9 20.4 7.6 3.2 1.4 6.5 2.6 7.2 2.6.8 0 4-2.6 7.2-5.9 6.3-6.5 19.4-16.9 23-18.2 4.4-1.7 4.2-2.9-5.8-24.9-2.9-6.3-6.1-12.5-7.2-13.6-2.6-2.9-8.3-4.4-20.3-5.4-5.5-.4-10.9-1.1-12-1.4-1.2-.3-3.4.4-5.5 1.8zm28.6 7.5l5.6 1.6 4.7 11c2.6 6.1 5.5 12.5 6.4 14.2l1.7 3.3-8.7 6.7c-4.8 3.8-10.9 8.9-13.5 11.5-2.5 2.7-4.9 4.8-5.1 4.8-.3 0-3.2-1.1-6.4-2.4-9.4-3.8-16.7-6.4-18.7-6.8-1.5-.2-2.4-2.2-4.2-9.3-1.2-5-2.9-11-3.8-13.4-2.3-6.3-2-8 1.6-9.9 1.7-.9 6.1-4.4 9.7-7.7l6.6-6 9.2.3c5.1.2 11.8 1.1 14.9 2.1zM893 557c-1.4.4-4.7 1.4-7.3 2-15.1 4-22 15.3-27.2 45-1.4 8-3.4 17.4-4.5 21-1 3.6-2.6 11.7-3.5 18.2-.8 6.4-2.9 16.5-4.6 22.5-1.7 5.9-4.4 16.6-5.9 23.8-1.5 7.1-4.2 19.1-5.8 26.5-3 13.2-3.8 17.3-4.8 25.5-.9 7.3-3.6 19.9-5.9 28-1.3 4.4-3 11.8-3.9 16.5-1.4 7.9-1.8 10.8-3.2 21.5-.2 2.2-.7 5.1-.9 6.5-.2 1.4-.7 5.3-1 8.7-.3 3.4-.7 7-.9 8-.2 1-.7 4.3-1 7.3-1.5 11.8-1.8 13.9-4.1 24.5-1.3 6-3.1 16.6-4 23.5-2.7 21.8-6.1 38.9-10.1 51.5-1.4 4.4-3.9 14.7-5.5 23-1.6 8.2-3.5 17.3-4.3 20.2-.8 2.8-1.7 7.5-2 10.5-1.1 9.3-1.7 13.2-3.1 18.8-.7 3-1.6 7.7-2 10.5-.3 2.7-1.1 7.9-1.7 11.4-2.4 14.4 1.3 27.2 10.7 36 5.1 4.9 17.2 11.7 25 14.1 2.2.6 7.6 2.7 12 4.5 4.4 1.8 13 4.3 19 5.4 6.1 1.1 15.7 2.9 21.5 4 12.3 2.3 15.1 2.8 20.5 3.5 9.7 1.3 12.6 1.5 23 2.2 6.1.3 11.7.8 12.5.9.8.2 4.7.6 8.5 1.1 8.2.9 6.7.6 13.3 2.7 2.9.9 7.8 1.9 11 2.2 3.1.3 8.9 1.2 12.7 2 13.9 2.8 18 3.3 26.1 2.8 5.1-.2 11.1.2 15.6 1.1 4 .8 9.4 1.7 12.1 2 2.6.4 5.8 1.1 7.1 1.6 1.3.5 4.1 1.1 6.3 1.5 6.5.9 8 1.3 14 3.4 6.1 2.1 37.1 10.9 41.2 11.7 1.2.3 5.3 1.2 9 2 3.6.9 8.6 1.8 11.1 2.1 2.5.3 7.7 1.6 11.6 2.8 3.8 1.3 10.6 3 15 3.9 7.7 1.5 9.8 1.8 21.4 3.2 3 .3 5.7.7 6 .9 1 .6 18.7 3.4 26 4 4.1.4 8.4.9 9.5 1.1 1.1.2 3.4.6 5 .9 15.3 2.6 24.7 4.3 31.5 5.9 3.6.8 11.7 1.7 18 2 6.3.3 12.6.8 14 1.1 6.1 1.2 18.8 3.5 22.5 4.1 2.2.3 10.1 1.8 17.5 3.4 7.4 1.5 16 3.1 19 3.5 3 .4 8.9 2.1 13 3.7 8.6 3.5 16 5.3 24.3 6.2 12.8 1.3 17.3 1.8 18.9 2.1.9.2 5.9.7 11 1 8.3.7 21 2.4 27.8 3.9 5.9 1.4 19 3.5 24.5 4.1 3.2.4 6.2.8 6.6 1.1.4.2 2.4.6 4.5.9 2.2.4 4.6.8 5.4 1 .8.2 3.3.7 5.5 1 6.6.9 7.7 1.2 13.5 3.8 3.4 1.6 8.3 2.7 13 3.1 12 1.1 15.8 1.6 29 4.2 6.9 1.4 14.5 2.7 17 3 2.5.3 8.6 1.4 13.5 2.4 5 1 10.6 2.1 12.5 2.4 6.8 1.1 10.1 1.7 17.3 3.2 3.9.8 8.8 1.7 10.7 2 1.9.3 8.5 2.1 14.6 3.9 6.2 1.9 13.6 3.8 16.5 4.4 3 .5 9.5 1.9 14.4 3 5 1 11.9 2.2 15.5 2.6 3.6.3 12.6 1.7 20 3.1 7.4 1.4 18.2 2.7 24 3.1 5.8.3 13.9 1.3 18 2.3 8.2 2.1 24.2 4.9 30.5 5.5 2.2.3 6.6.7 9.9 1 3.2.3 9.4 1.6 13.8 3 4.3 1.4 8.5 2.5 9.3 2.5.7 0 6.8 1.6 13.4 3.5 11.3 3.3 25.7 6.5 36.1 8 2.5.4 9.2 1.8 14.9 3.2 5.7 1.3 11.4 2.7 12.5 2.9 1.2.2 3.2.6 4.6.9 1.4.2 4.1.7 6 1 3.5.6 14.6 3.2 33.5 7.9 11.4 2.8 31.9 6.6 35.8 6.6 1.4 0 6.3.9 10.9 1.9 10 2.4 12.9 2.8 23.3 3.6 4.4.4 12.1 1.9 17 3.5 5 1.6 10.4 3.1 12 3.4 1.7.4 4.1.8 5.5 1.1 1.4.3 7.2 1.4 13 2.6 12.3 2.5 13.2 2.6 22.7 3.3 3.9.3 11.1 1.4 16 2.5 6.9 1.5 11.7 1.9 22.8 1.6 13.1-.3 15.3 0 33 3.6 10.5 2.2 20.8 4.2 23 4.5 2.2.3 11.7 2.1 21 4 48.5 9.8 62.3 12.5 76 14.9 24.2 4.2 37 6.9 85.5 17.5 4.7 1 10.6 2.2 13.2 2.5 10.8 1.6 30.6-8 36.7-17.8 2.6-4.3 4.8-13.2 5.4-22.2.9-12.9 12-73.3 16.7-91 1.6-6.1 4.1-17.8 5.5-26 1.4-8.3 3-17.3 3.5-20 2.8-14 10-52.5 10.4-56 .5-4.4 1.2-10.9 2.1-19.5.9-8.4 14.3-79.2 19-100 2.4-10.6 4.9-26.3 6-37.5 1.4-15.2 10.9-67.2 16.1-88.5 3.1-12.4 3.5-15.7 3.1-22.5-.8-13.4-4.9-19.8-17.6-27.4-6.2-3.7-20.1-8-31.1-9.5-1.9-.3-5.3-1-7.5-1.6-2.2-.5-7.5-1.5-11.9-2-4.3-.5-8.4-1.4-9.1-2-.7-.5-4.8-1.5-9.1-2-4.3-.6-9.2-1.2-10.9-1.5-1.6-.2-5.2-.7-8-1-6.7-.7-11.3-1.4-15.5-2.5-4.3-1-14.7-2.3-21.5-2.5-5.6-.2-14.5-2.4-34.5-8.3-7.4-2.2-17.5-4.7-22.5-5.7-4.9-.9-17.1-3.4-27-5.5-9.9-2.1-25-5-33.5-6.5-8.5-1.4-17.7-3.3-20.5-4.1-9-2.5-36.9-9.2-41.5-9.9-2.5-.4-5.8-.9-7.5-1.1-1.6-.2-4.1-.7-5.5-.9-1.4-.3-3.4-.7-4.5-.9-1.1-.2-5.4-1.1-9.5-1.9-4.1-.9-9.7-1.8-12.5-2.2-2.7-.3-6.6-1-8.5-1.5-1.9-.4-6-1.1-9-1.4-3-.3-8-1-11-1.5s-7.3-1.2-9.5-1.5c-2.2-.3-7.3-1.2-11.3-2.1-4.1-.8-9.7-1.8-12.5-2-6.1-.7-22-3.1-32.3-4.9-1.2-.3-4.5-.7-7.5-1.1-10.6-1.2-14.4-1.7-16.4-2.1-10.2-2.2-32.9-5.7-40.5-6.4-5.2-.4-10.4-1-11.5-1.3-1.8-.4-5.7-1.1-13.5-2.3-1.4-.3-3.6-.7-5-.9-1.4-.3-3.4-.7-4.5-.9-1.1-.2-7.6-1.6-14.5-3s-14.7-2.8-17.5-3.1c-2.7-.3-6.1-.8-7.5-1-1.4-.2-5-.7-8-1-3-.4-13.1-2.2-22.5-4-9.3-1.9-18.6-3.7-20.5-4-1.9-.3-4.2-.8-5-1-.8-.2-2.8-.6-4.5-.9-1.6-.3-7-1.2-12-2-4.9-.8-11.2-1.8-14-2.1-2.7-.3-6.1-.8-7.5-1.1-1.4-.2-3.8-.7-5.5-1-1.6-.3-11.8-2.3-22.5-4.5-31.4-6.5-34.1-7-42.4-7.5-4.3-.2-9.8-1.1-12.3-1.9-7.8-2.6-15.7-4.2-30.8-6-2.7-.3-8.4-1.4-12.5-2.5-4.1-1-9.1-2.1-11-2.4-1.9-.3-4.6-.8-6-1.1-11.3-2.2-14.3-2.8-19.9-4.1-3.6-.9-7.4-1.8-8.4-2-1.1-.2-3.4-.8-5.1-1.3-3.1-1-14.9-3.5-21.6-4.6-1.9-.3-4.6-.7-6-1-1.4-.2-4.5-.7-7-1-4.4-.5-10.1-1.3-15-2-1.4-.2-5-.6-8-.9-3-.3-8-1-11-1.6-3-.6-7.7-1.3-10.5-1.6-2.7-.3-7.7-1.4-11-2.4-8.2-2.6-12.6-3.3-22-3.5-6.6-.2-9.7-.9-17.3-3.9-8.7-3.4-21.3-6.6-32.2-8.1-2.5-.3-7.4-1.5-11-2.5-3.6-1-8.5-2.2-11-2.5-2.5-.4-5.2-.9-6-1-4.4-.8-10.2-1.5-15.5-2-16.8-1.6-24.2-2.4-30-3.5-5.5-1-10.5-1.6-21-2.5-3.8-.4-7.7-.8-8.5-1-.8-.2-3.5-.7-6-1-2.5-.3-7.3-1.3-10.8-2-3.4-.8-7.7-1.7-9.5-2-1.7-.3-3.9-.8-4.7-1-.8-.2-3.6-.6-6.2-1-2.6-.3-9.8-1.7-16-3.1-6.2-1.4-12.4-2.8-13.8-3-1.4-.2-3.6-.6-5-.9-1.4-.3-4.7-.7-7.5-1.1-2.7-.3-5.8-.8-6.7-.9-.9-.2-4.7-.7-8.4-1-3.6-.4-10.7-1.8-15.8-3.1-5-1.3-12.2-3.1-16.1-4-3.8-.9-13.3-3.3-21-5.4-18.4-5-33.8-8.3-44-9.5-2.7-.4-8.1-1.5-12-2.5-7.8-2-10.8-2.5-30.6-4.5-6.6-.7-6.4-.6-19.9-3.9-5.8-1.4-12.3-2.8-14.5-3.1-2.2-.4-9.6-1.8-16.5-3.2-6.9-1.4-13.2-2.6-14-2.8-2-.4-10.9-1.3-19.5-2-3.8-.3-8.8-.8-11-1.1-9.5-1.1-12.1-1.5-14.5-1.9-1.4-.3-3.6-.8-5-1-8.3-1.6-19.1-3.6-22.5-4-4.5-.7-19.9-3.5-23-4.2-3.8-.9-37-1.2-39.5-.3zm135.7 36c6.5 1.5 13 6 14.8 10.4 2.2 5.2.9 13.4-2.6 16.6-2.3 2.2-2.5 2.8-1.4 4.4 2.5 3.3 3.7 11 2.5 15.4-.8 3.2-2.1 4.8-5.7 7.3-4.5 3-5 3.1-12.8 2.7-4.4-.3-10.6-1.3-13.8-2.2-7.3-2.2-8.5-4.3-6.9-11.8.6-2.9 1.6-9.1 2.2-13.8 1.5-11 5.4-25.8 7.3-27.7 1.6-1.6 7.1-3.1 9.7-2.7.8.2 3.9.8 6.7 1.4zm51.4 10.3c4.8 3.2 5.8 9.3 5.6 34.2l-.2 20-2.6.9c-1.8.6-4 .4-7-.5-4.3-1.4-4.4-1.5-4.3-5.6.1-3.8-.2-4.2-2.9-4.7-6.5-1.3-9.1-.7-11.2 2.7-1.5 2.4-2.9 3.3-5.4 3.5-3.8.4-7.1-2-7.1-5.1 0-3.9 17.1-41.2 21.3-46.5 1.7-2.1 10-1.5 13.8 1.1zm43.9 4.7c4.9 2.5 7 6.4 7 12.9 0 4.3-.4 5.3-2.5 6.7-4.1 2.7-11.5-.4-11.5-4.7 0-2.1-3.8-3.4-6.9-2.4-4.7 1.5-1 8 6.5 11.9 1.8.8 4.9 3.5 6.9 5.8 3.6 4.2 3.7 4.4 3.1 10.7-.8 7.5-2.4 10.9-6.7 14.5-3 2.6-3.6 2.7-9.8 2.1-7.5-.8-14.2-3.6-17-7.1-1.1-1.3-2.2-4.7-2.6-7.5-.8-6 1-8.9 5.8-8.9 4.1 0 6.7 2.6 6.7 6.6 0 3.5 2.1 5.4 5.9 5.4 1.4 0 2.4-1.2 3.6-4.4 1-2.5 1.4-4.9 1.1-5.5-.4-.6-2.6-1.9-4.9-2.9-2.3-1-6.1-4-8.4-6.5-4.1-4.5-4.3-4.9-4.3-10.9.1-7.8 2.3-12.2 7.6-15.4 5.2-3.2 14.7-3.3 20.4-.4zm37.9 8.1c4 1.4 10.1 9.2 10.1 12.9 0 3.3-2.7 6.8-5.5 7.1-6.8.5-9.5-1.4-9.5-6.7 0-3.5 0-3.5-4.2-3.2-3.6.3-4.5.8-5.7 3.2-1.3 2.8-1.2 3.1 1.5 5.3 1.6 1.3 5.9 3.9 9.6 5.8 7.7 4.1 8.8 5.6 8.8 11.8 0 6.3-2.5 12.6-6.7 16.9-5.1 5.3-8.6 6.2-15.8 4.3-9.6-2.5-15.5-8.6-15.5-16 0-4.6 1.7-6.5 5.8-6.5 5.3 0 7.6 2 7.5 6.3-.1 4.2 1.7 5.3 5.5 3.5 3.8-1.8 5.1-6.1 2.7-8.8-1-1.1-2.4-2-3.2-2-3.7 0-10-4.2-12.1-8.3-2.3-4-2.3-4.4-.9-9.8 2.3-8.6 5.4-13.8 9-15.4 3.9-1.7 14.2-1.9 18.6-.4zm380.6 69.9c13.7 2.6 13.5 2.5 13.5 7.4 0 6.4-2.1 8.7-7.8 8.4l-4.6-.3-2.3 12.5c-1.3 6.9-2.8 13.8-3.3 15.4-.6 1.6-1 4.6-1 6.7 0 5.4-3 8.3-7.7 7.6-4.7-.8-7.3-3.3-7.3-7.1.1-3.1 2.2-14.6 5.5-28.9 1-4.2 1.6-8 1.3-8.3-.3-.3-2.8-1-5.4-1.7l-4.9-1.2.3-4.4c.2-2.4.8-5.5 1.3-6.8.9-2.3 1.2-2.4 6.7-1.8 3.1.4 10.2 1.5 15.7 2.5zm35.2 6c11 1.1 16.8 6.2 16.5 14.4-.3 6.3-2.1 11.4-5.4 15.2-3 3.3-3 3.5-1.2 4.9 1.6 1.1 1.9 2.5 1.8 8.4-.2 9.3-2.1 16.9-4.5 18.2-1.4.7-3 .6-5.5-.3l-3.6-1.3.7-7.1c1-11.2-2.3-16.7-9.1-15-1.8.5-2.4 1.3-2.4 3.3 0 1.4-.5 5.5-1.1 9l-1.1 6.3h-4.3c-2.8 0-5.1-.7-7-2.2-2.4-1.9-2.7-2.6-2.1-6.3.3-2.4 1.2-6.2 2.1-8.6.8-2.4 2.2-9.1 3.1-14.9 2.1-13.7 3.9-21.7 5.5-23.7 2-2.3 5.1-3.2 7.9-2.1 1.4.6 5.8 1.4 9.7 1.8zm41.3 8.5c3.6.8 8.6 1.4 11.2 1.5 2.6 0 5 .5 5.4 1.2 1.2 1.9.4 9-1.3 11.6-1.3 2.2-1.9 2.3-6.6 1.7-2.9-.4-7.5-1.2-10.4-2-4.9-1.2-5.2-1.2-5.7.9-1.1 3.9-.6 7.4 1 8 .9.3 4.7.9 8.5 1.2 9.6.9 10.7 1.9 9.1 8-.7 2.7-1.5 5-1.6 5.2-.2.1-4.3-.5-9.1-1.4-9.8-2-10.5-1.7-10.5 4.7v3.7l6.3 1.1c3.5.6 7.4 1.1 8.6 1.1 1.2 0 2.4.7 2.7 1.5.8 2.1-.3 7.7-2 10-1.3 1.9-1.7 1.9-13 .1-7.4-1.2-12.5-2.5-13.9-3.6-2-1.7-2.1-2.1-.9-8.1.7-3.5 1.7-12.4 2.2-19.7.9-11.4 3.1-24.8 4.2-25.7 3.5-2.8 6.7-3 15.8-1zm44 7.5c3.6 1.2 7.6 3.3 8.9 4.5 2.2 2.2 2.3 2.7 1.6 9.9-.6 6.3-1.3 8.5-4 12.6-1.8 2.7-2.9 5.2-2.5 5.5 2 1.2 3.1 8.4 2 12.5-1.3 4.9-6.3 10.8-9.9 11.6-1.4.4-3 1-3.6 1.4-3.6 2.8-23.2-1.6-22.9-5.1.1-.8 1.3-8.4 2.7-16.9 1.5-8.5 3.1-19.5 3.6-24.4 1.1-9.6 2.8-13.2 6.3-13.9 3.9-.9 11.1.1 17.8 2.3zm32 6.8l2.2 1.8-1.6 9.9c-.9 5.5-2.5 13.3-3.6 17.3s-2.1 9.3-2.3 11.9c-.2 5.2-.5 5 10.6 6.8 4 .6 4.4 1.7 3.1 8.4-.6 3-.9 3.1-5.6 3.1-4.9 0-14.6-2-19.9-4.1-4.2-1.6-4.7-4.2-2.7-12.3 1.8-7.2 3.8-17.2 6.3-32.5 2.1-12.4 2-12.1 7-12.1 2.6 0 5.1.7 6.5 1.8zm35 6.7c3 .7 8.2 1.8 11.5 2.5 8.5 1.7 9 2.1 9.3 7.3.3 4 0 4.8-2.2 6.2-2.2 1.5-2.8 1.5-7.1.1-2.5-.9-6.4-2-8.5-2.5l-3.9-.9-1 4.6c-.5 2.6-.8 4.9-.5 5.3.6 1 8.9 2.9 12.8 2.9 2.2 0 4.3.7 5.6 2 1.7 1.7 1.8 2.3.6 6.2-.9 3.3-1.7 4.3-3.2 4.1-1-.1-5.4-.7-9.8-1.3-4.3-.6-8-.9-8.3-.6-.8.7-2.2 7.9-1.8 8.7.3.4 2.6 1 5.2 1.3 2.7.4 6.9 1.4 9.4 2.2 3.7 1.2 4.8 2 5.2 4.1.6 3.4-.8 7.2-3 8-.9.4-6.4-.4-12.2-1.6-5.8-1.3-13-2.8-16-3.5l-5.4-1.1.7-9.5c.4-5.3 1.3-11.6 2-14.1.8-2.6 1.9-8.2 2.6-12.5 2.3-16.4 5-21.3 10.5-19.7 1.1.3 4.5 1.1 7.5 1.8zm-707 4.2c0 .9-.9 6.4-1.9 12.2-3.1 17.3-5.1 44.9-3.3 45.2.4.1 1.8.3 3.2.5 11.3 1.5 20.9 3.6 29 6.3 10.1 3.3 14.2 3.8 15.8 1.8.5-.6 1.2-5.3 1.5-10.2.3-5 1.3-13.7 2.2-19.4 1.7-10.6 6-30.9 6.8-31.7.8-.8 16.3 3.8 19.7 5.9 7.2 4.4 24 19.8 28.4 26 10.8 15.1 20.4 38.3 22.6 54.6 2.5 17.6 2.4 23.9-.5 36.6-3.3 14.7-5.5 19.8-15 33.9-5.4 8.2-10.1 13.6-17.6 20.6-5.6 5.2-11.8 11.1-13.8 13.1s-5.6 4.6-8.1 5.9c-2.5 1.2-5.8 3.5-7.5 5-3.3 3.1-21 10.4-34.9 14.4-9.9 2.9-21.3 3.4-33.8 1.5-8.3-1.3-34.1-9.1-40.8-12.4-16.1-7.9-27.7-15.8-32.7-22.2-4.4-5.7-11.5-18-14.4-24.9-1.5-3.4-3.6-7.5-4.7-9.1-1.1-1.6-2.4-4.2-2.8-5.9-.4-1.6-1.8-5.2-3.2-7.9-2.7-5.3-6.2-23.9-6.2-33.2 0-6.2 4.3-18.6 12.2-35.3 3.1-6.3 6.3-13.1 7.2-15.2 1-2 3.6-5.6 5.8-8 2.2-2.3 6.3-6.9 9.1-10 2.7-3.2 6.9-6.9 9.2-8.2 2.3-1.4 5-3.7 5.9-5 4.2-6.5 21.6-16.9 33.1-19.8 2.2-.6 7.4-2.3 11.5-3.8 8.9-3.3 18-4 18-1.3zm945 40.5c8 2.4 12 7.9 12 16.6 0 3.5-2.9 10-5.3 12-1.2 1-1.2 1.8-.2 4.9.7 2.1 1.2 4.6 1 5.8-.2 1.1-.6 4.2-1 7-1 7.7-1.6 9.5-3.5 10.5-3.9 2.1-12.5-2.8-10.5-6 1.1-1.7 3.4-16.5 2.7-17.1-.4-.4-1.9-.9-3.3-1.3l-2.6-.6-1.2 10c-1.5 11-2.4 12.5-7.8 12.2-6.8-.5-10.3-4.7-7.7-9.3.7-1.3 1.3-3.8 1.4-5.6 0-3.1 4-22.5 6-29.3.5-1.9 1-4.6 1-5.9 0-1.3.8-3.3 1.7-4.3 1.4-1.6 2.6-1.8 7.7-1.2 3.4.3 7.7 1 9.6 1.6zm-339.4 5.9c1.4 1.2 1.4 5.2-.2 12.8l-.5 2.4-2.2-2c-1.2-1.1-4.3-2.8-6.9-3.8-4.4-1.6-4.8-2.1-4.8-5.1 0-6.2.7-6.7 7.2-6.1 3.2.3 6.6 1.1 7.4 1.8zm377.1 0c8.4 2.2 10.3 3.7 10.3 8.1 0 3.5-3.9 6.4-6.7 5-1-.5-3.9-1.2-6.5-1.4l-4.8-.6v4.9c0 5.3.8 6.1 7.2 7.3 5.9 1.1 8.3 4.7 5.8 8.6-.7 1.1-2.9 1.5-8.7 1.5h-7.8v10.8l5.9 1.2c6.4 1.3 8.6 3.2 8.6 7.6 0 5.4-4.6 6.3-17.5 3.4-4.4-1-8.8-2.6-9.9-3.6-1.7-1.6-1.7-2-.2-8.7.9-3.9 1.6-8.5 1.6-10.2 0-3.3 4.4-28.3 5.6-31.5 1.9-5.3 5-5.7 17.1-2.4zm25.9 7.2c1.6 3 1.6 3.9-.5 15.2-1.2 6.3-1.4 15.2-.3 15.9.5.3 2.6-3.9 4.7-9.2 8.4-21.6 7.9-20.9 13.8-19.8 5 .9 6.3 3.5 4.1 8.4-.9 2-2 4.6-2.5 5.7-1.4 3.5-11.6 29.9-13 33.8-1.9 5.5-4.2 7.2-7.6 5.9-1.6-.6-4.3-1.4-6.1-1.7-6.4-1.3-6.3-1-5.6-28.9.4-13.8 1.1-25.9 1.5-26.8.9-1.7 4.9-2.7 8.2-1.9 1 .2 2.5 1.7 3.3 3.4zm45.7 7c8.4 1.8 9.9 3 9.5 7.5-.4 5.2-2.4 5.9-10.8 3.8-4-.9-7.3-1.6-7.4-1.4-1 1.6-2.6 6.2-2.6 7.3 0 .9 2.6 2.2 7 3.6 7.5 2.2 8.9 4 7.6 9.3-.8 3.3-3.7 4-9.8 2.6-5.8-1.4-6.2-1.1-7.2 5.2-.8 4.7-.4 5.4 3.1 6.1 12.2 2.5 15.4 4.9 12.9 9.8-.9 2-2 2.5-5.9 2.7-2.7.2-6.9-.3-9.5-1.2-2.6-.8-6.3-1.7-8.3-2-4.6-.8-6.3-2.8-5.5-6.3 1.4-5.7 3.6-18.1 5.1-27.6 2-13 3.4-18.8 4.8-20.5 1.2-1.6 5.3-1.3 17 1.1zm29 5.3c9.3 2.1 12 3.6 14.6 7.7 3.3 5.4 2.1 15.7-2.5 20.8-1.4 1.6-1.5 2.3-.6 4.5.7 1.3 1.2 4.4 1.2 6.7-.1 4.4-2.3 17.4-3.2 18.2-.3.3-3.1-.3-6.4-1.3-5.6-1.7-5.9-2-5.6-4.8 1.5-17.1 1.6-15.9-1.2-17.2-3.1-1.4-2.9-1.7-4.6 8.3-1.9 11.3-1.5 10.8-6.7 10-2.5-.4-5.2-.9-5.9-1.2-1.9-.7-1.7-4.4.6-13.2 1.1-4.1 2-9.5 2-12 .1-4.6 3.1-20.9 4.5-24.4.7-1.7 3.6-3.5 5.8-3.6.4-.1 4 .6 8 1.5zm39.9 6.3c16.3 4.7 20.9 15.1 11.6 26.4l-3.9 4.7 2 2.6c2.7 3.5 2.7 9.1 0 14.9-2.7 5.7-3.5 6.3-10.4 7.7-6.5 1.3-17.7-.3-20.7-3-2.4-2-2.3-3.7.6-16.2 3-12.9 5.6-27.6 5.6-31.8 0-3.8 3-7.2 6.3-7.2 1.2 0 5.2.9 8.9 1.9zm48.7 10.8c2.3 1.5 2.3 1.9 1.6 9.7-1.1 11.5-1.5 22.7-.9 25.5.4 1.9 1.9-1.1 6.4-12.5 3.2-8.2 6.1-16.1 6.5-17.7.6-3.1 2.3-3.4 8.5-1.5 4 1.3 5.3 4 3.1 6.3-.5.6-2.2 4.1-3.8 8-16.9 40.1-16.6 39.6-23.4 38.8-8.5-1-8.4-.8-8.4-30-.1-27.7.1-28.3 5.3-28.3 1.5 0 3.8.7 5.1 1.7zm48.1 8.5c2.5 1.3 5.5 3.9 6.9 5.8 2.2 3.3 2.3 4.2 1.8 13.2-.4 5.4-1.1 11.7-1.7 14-.7 2.4-1.6 6.1-2.2 8.3-2 7.6-3.1 9.6-6.7 12.1-4.9 3.3-10.9 3.2-18.1-.4-5-2.5-5.7-3.2-7.4-8.2-2-5.4-2-5.4.1-18 1.2-6.9 3.1-14.5 4.2-17 1.9-4.4 7.1-10.2 10.1-11.3 3.4-1.2 8.8-.6 13 1.5zm30.2 4.9c2.5 1.3 2.2 4.3-2.8 24.4-4.6 18.9-4.6 18.8 1.7 20.8 2.8 1 6.1 1.7 7.4 1.7 3.6 0 4.7 2.2 3.7 7.7l-.8 4.8-6.4-.2c-6.7-.2-17.3-2-20.1-3.4-2.7-1.4-2.9-5.8-.9-15.9 3.3-16.3 6.2-32.9 6.4-35.7.1-1.6.5-3.4.9-4.1 1-1.5 8.1-1.6 10.9-.1zm30.7 5.5c2 .4 2.2.9 1.8 4.2-.5 4.7-5.5 28.6-6.8 33.2-.6 2-.9 4.9-.7 6.5.3 2.6.7 3 3.8 3.3 1.9.1 4-.1 4.7-.5 1.1-.8 6.9-31.4 7.5-39.8l.3-4 4.5.3c6.5.4 7.6 1.8 6.1 8.4-1.2 5.8-4.7 24.2-6.1 32.8-1.6 9-5.4 12.5-14.8 13.7-3.7.4-6 0-9.6-1.5-6.7-3-8.1-6.7-7.2-19.2.8-13 4.3-34 6.1-36.7 1.5-2.3 2.3-2.3 10.4-.7zm-739.6 1.1c2.6.3 4.9.9 5.2 1.3.2.3-.7 5.3-2 11.1-4.6 20.5-7.5 36.1-7.5 40.4 0 5.6 1.7 6.6 15.5 9 5.5.9 12.2 2.1 14.9 2.6 2.6.4 7.1 1.6 9.8 2.5 5.7 1.9 6.7 1.3 7.4-4 1.2-10.2 10.5-51.1 11.9-52.4 1.3-1.3 17.8 8.3 22.6 13.1 13.5 13.7 26.4 36.4 31.3 55.1 4.2 16.6 4.6 18.6 4.6 26 0 9.8-6 37.8-10.4 48.3-3.1 7.5-15.5 27.4-20.8 33.5-4.2 4.8-21.6 16.8-31.6 21.8-5.7 2.9-14 6-20.2 7.6-9.6 2.4-11.6 2.6-25 2.2-13-.4-15.2-.8-21-3.2-3.6-1.5-12-4.7-18.7-7.1-14.6-5.3-16.6-6.3-26.4-13.1-22.6-15.9-38.8-44.1-44.4-77.4-2.7-15.9-2.3-18 7.9-44.8 7.6-20.2 13.4-30.5 23.1-41.1 7.7-8.5 16.3-16.1 18.1-16.1.6 0 2.2-.9 3.6-1.9 1.3-1.1 3.8-2.3 5.3-2.7 1.6-.4 4.3-1.5 6-2.5 9.9-5.7 27.8-10.6 34-9.3 1.1.3 4.2.7 6.8 1.1zm779.2 5.5c7.1 2.3 9.1 4.4 8.1 8.4-.4 1.4-.3 5.4 0 9.1l.7 6.6 4.3-9c2.4-4.9 5-9.5 5.8-10.2 1.1-1 3-.9 9.1.6 4.3 1 8 2.3 8.2 3 .3.7-.9 8.8-2.7 18-1.7 9.3-3.9 21.4-4.8 27.1-1.3 8.3-2 10.3-3.6 10.8-2.4.8-9.6-1.5-10.3-3.3-.3-.7.4-6.4 1.6-12.5 1.1-6.2 1.9-11.3 1.7-11.6-.5-.5-5.5 10.1-7.7 16.3-2.3 6.7-5.4 8.6-10.3 6.3l-3.4-1.7.5-11.3c.3-6.2.1-12.9-.4-14.8l-1-3.5-.8 5.5c-.4 2.9-1.5 9.2-2.4 14l-1.7 8.5-4 .3c-2.2.2-5.3-.2-6.8-.8-2.8-1-2.8-1.2-2.2-6.3.4-2.8 1.6-7.9 2.7-11.2 1.1-3.3 2.7-11.2 3.5-17.5 1.9-15.8 2.4-18.2 4-20.8 1.8-2.7 3.6-2.8 11.9 0zm58.8 11.5c12.4 2 13.1 2.6 11.5 9.4-1.6 6.5-2.2 6.9-10.3 6-3.8-.5-7.3-.6-7.6-.2-.4.3-.9 1.8-1.3 3.3-.5 2.3-.3 2.8 1.6 3.2 13.7 2.8 14.3 3.1 14.6 6.2.2 1.7-.2 4.3-.8 5.8l-1.1 2.9-8.3-.7-8.4-.7-.5 2.8c-.7 3.6 0 4.3 5.4 4.7 2.5.1 5.8.9 7.5 1.7 2.5 1.3 2.9 2 2.7 5.4-.4 6.3-2.5 8.5-8.1 8.4-6.2-.1-17.1-2.1-19.9-3.7-2.8-1.6-2.8-2.8-.4-16.7 1.1-6.1 2.5-14.8 3.1-19.5 1.1-7.7 2.6-15.5 3.6-18.8.5-1.6 3.7-1.5 16.7.5zM2131 938.5c0 1.3-.6 7.3-1.4 13.2-.8 5.9-1.9 16.2-2.6 22.8-.6 6.6-1.5 13.6-1.9 15.7-.5 2-.5 4.1-.1 4.7 1 1.7 23.7 7.5 37.3 9.6 10.2 1.6 12 1.7 12.8.4.5-.8.7-2 .4-2.7-.2-.7.2-4.3.9-8 .8-3.7 2.2-12.6 3-19.7 2-15.2 4.5-26.5 6.1-26.5 1.3 0 10.5 5.7 16 10 2.2 1.7 5.9 4 8.2 5.1 2.3 1.2 5.2 3.6 6.3 5.4 1.2 1.9 4 4.8 6.2 6.4 2.3 1.7 5.3 5.1 6.7 7.6 1.4 2.5 5 7.9 7.9 12 3.2 4.5 5.9 9.6 6.7 12.8.8 2.9 3.5 10.2 6.1 16.3 4.1 9.3 4.7 11.8 4.7 17.4 0 3.6-.6 8.3-1.2 10.5-.6 2.2-2 8.3-3.1 13.5-2.5 12-7.3 24.6-11 28.5-1.6 1.6-5.1 7.5-7.8 13s-6.1 11.4-7.4 13c-1.4 1.7-4.2 5.2-6.2 8-3.8 4.9-7.8 8-25.1 19.1-4.9 3.2-11.4 7.3-14.3 9.2-8.2 5.4-16.3 7.3-33.7 7.9-12.7.4-16.7.2-26-1.6-14.8-2.9-27.7-6.8-40.8-12.5-4.3-1.9-19.5-15.6-21.6-19.5-.8-1.4-3.5-4.9-6.1-7.8-2.6-2.8-5.7-7.7-7-11-1.3-3.2-4.3-9.6-6.6-14.3-6.5-12.8-7.5-17.8-8.1-39-.5-16.9-.4-19.2 1.6-26.5 1.2-4.4 3.7-10.5 5.5-13.5 1.8-3 3.9-7.3 4.6-9.5 1.5-4.8 5.3-11.4 9.9-17.5 1.9-2.5 4-5.9 4.7-7.6 1.7-4 15.9-18.6 20.4-20.9 1.9-1 5.2-3.3 7.4-5.2 4.1-3.7 11.4-7.4 18.7-9.3 2.4-.7 6.1-2.4 8.4-4 5.9-4 10.2-6 14.8-7 6.4-1.2 6.7-1.2 6.7 1.5zm-1207.7 85.4c2 2.1 3.7 4.2 3.7 4.6 0 .4-2.1 2.8-4.8 5.4-2.6 2.5-7.3 7.4-10.4 10.9-4.8 5.3-6.1 6.2-8 5.7-3-1-5.8-3.5-5.8-5.2 0-2 19.1-24.9 21-25.2.3-.1 2.2 1.6 4.3 3.8zm185.7 36.3c1.2 5 3.3 12.6 5.7 20.3.9 3.4 1.2 6 .7 6.5-1.6 1.6-9.5 1.6-10.5 0-1.9-3.4-8.9-27.4-8.1-28.2.7-.7 7.2-2.5 9.9-2.7.7-.1 1.7 1.8 2.3 4.1zm352.7 82.1c.9 1.5-9.3 10.7-12.1 10.7-6.4 0-6.2-7.1.6-14.6l1.9-2.2 4.5 2.5c2.4 1.3 4.7 3 5.1 3.6zm194.9 30.3c4.4 13.2 4.1 14.9-2.1 14.9-3.5 0-4.1-.4-6.4-4.5-2.3-3.9-3.9-8.1-5.7-15.5-.4-1.6.4-2.5 3.3-4.2 6.4-3.7 6.7-3.5 10.9 9.3zm348.3 62.8c3.1 3.2 4.1 4.8 3.5 5.9-1.6 2.6-13.3 14.7-14.4 14.7-.5 0-2.3-1.9-4-4.1-3.3-4.6-3.1-5.5 2-10.4 1.7-1.7 4.1-4.7 5.3-6.8 1.1-2 2.3-3.7 2.7-3.7.3 0 2.5 2 4.9 4.4zm200.6 47.7c.9 5.1-.4 6.6-6.2 7.5-4 .6-4.3.5-5.3-2.2-2.3-5.9-1.9-6.6 4-8.4 3-.9 5.8-1.5 6.2-1.3.3.2.9 2.2 1.3 4.4z"/><path d="M1020 606.6c-.6 1.4-1 3.6-1 5 0 2.1.5 2.4 3.8 2.6 5.9.2 7.6-.1 8.8-1.8 2.2-2.8.5-5.3-4.9-6.9-2.8-.8-5.2-1.5-5.4-1.5-.2 0-.8 1.2-1.3 2.6zM1017.5 630.7c-.4 2.5-.9 5.2-1.2 5.9-.4 1.1.5 1.4 3.6 1.4 3.5 0 4.3-.4 5.6-3.1 1.5-2.8 1.5-3.2 0-4.9-.9-1-3-2.3-4.5-2.8-2.7-1-2.8-.9-3.5 3.5zM1071.6 616.2c-2.1 3.2-6.3 12.8-7.1 15.9-.6 2.3-.3 2.7 2.2 3 7.2 1 7.3.9 7.3-10.7 0-5.7-.2-10.4-.5-10.4-.2 0-1.1 1-1.9 2.2zM1568.6 707.6c-2.3 6.8-2.1 8.2 1.2 8.6 6.8.8 12.2-2.6 12.2-7.7 0-1.9-3.7-4.2-8.1-5-3.6-.7-3.7-.6-5.3 4.1zM1652.3 723.6c-1.3 6.9-.7 7.7 5.2 7 8.8-1.1 8.4-10.8-.6-12.2l-3.5-.6-1.1 5.8zM1646.5 747.6c-.3 2.5-.4 4.8-.2 5.1.3.2 2.4.7 4.6 1 4.9.7 7.1-.8 7.1-4.7 0-3.6-2.9-6-7.2-6-3.5 0-3.6.1-4.3 4.6zM1960.6 779.7c-.4 2.1-.9 5-1.2 6.5-.5 2.5-.3 2.8 2 2.8 3 0 3.7-1 4.7-6.4.8-4.5-.2-6.6-3.1-6.6-1.3 0-2 1.1-2.4 3.7zM2101.5 808c-.4 2.7-.4 5.3-.1 5.9 1.6 2.6 9.6-2.7 9.6-6.4 0-3-1.9-4.5-5.6-4.5-3.1 0-3.2.2-3.9 5zM2140.3 813.5c-.6 2.4-.8 4.7-.5 5 1 1 7.8.5 9-.7.7-.7 1.2-2.4 1.2-4 0-3-2.3-4.8-6.3-4.8-2 0-2.5.7-3.4 4.5zM2135.6 834.2c-1.3 5.1-.7 8.5 1.7 9.2 5.7 1.5 8.7-.5 8.7-6 0-2.8-.5-3.6-2.6-4.4-4.3-1.7-7.1-1.2-7.8 1.2zM2231.6 827.2c-2.9 4.5-5.8 15.4-6.3 23.8-.6 8.5-.5 8.7 2.2 10.8 5.3 4.2 7 2.7 9.6-7.8 2.6-11.1 3.6-25.4 1.9-27.5-1.8-2.2-5.7-1.9-7.4.7zM4180 919c-18.9 2.2-37.4 5.1-40.5 6.4-6.4 2.7-12.9 7.9-24 19.1-16.9 17.1-23 29.1-26.6 51.8-3 19.8-1.2 30.7 8.2 48.3 5.9 11.1 9 15.4 16.7 23.1 14.5 14.6 31.3 22.9 56.6 27.8 13.4 2.6 32.4 1.7 42.9-2 7.1-2.5 8.6-3.5 16.5-11.4 13.5-13.4 22.5-23.2 25.2-27.6 3.1-4.8 16-31.2 16-32.6 0-.5 1-2.9 2.2-5.2 1.8-3.5 2.2-5.8 2.2-13.7 0-8.2-.6-11.1-3.7-20.7-4.2-13.1-8.1-21.6-13.4-29.5-7.9-11.6-17.1-19.6-25.1-21.7-2.2-.6-4.4-1.6-4.7-2.1-.3-.5-3.5-1.8-7-2.9-3.5-1.1-7.7-2.7-9.2-3.5-1.5-.7-7.1-1.9-12.3-2.5-5.2-.7-10.4-1.3-11.5-1.5-1.1-.2-4.9 0-8.5.4zm21 8.8c3.6.4 7.5 1.4 8.8 2.1 1.3.7 4.6 1.9 7.4 2.7 2.7.9 6.4 2.4 8.1 3.5 1.8 1 4 1.9 4.9 1.9 3 0 11.1 5.7 15.4 10.8 8.9 10.4 13.3 18.6 19 36 4 12.1 4.8 23.6 2 29-.9 1.7-1.6 3.6-1.6 4.2 0 1.1-7.3 17.3-9.1 20-.5.8-1.4 2.6-2 4-3.2 7.4-5.2 10.2-15.5 21.8-18.6 21.1-23.6 24.2-42.4 26.3-8.3 1-11.1.8-21.7-1-25.8-4.3-43-12.4-56.7-26.5-9.2-9.5-19-26.5-22.1-38.3-4-15.4 1.2-45.4 10.1-57.4 1.3-1.8 2.4-3.8 2.4-4.4 0-1.6 17.6-18.7 24.8-24.3 6.6-5 11.7-7 21.3-8.2 4.6-.6 12.9-1.7 18.4-2.5 9.6-1.3 14.6-1.3 28.5.3z"/><path d="M4159.8 968.4c-3.8 2.9-8.8 7.2-11.2 9.4-2.4 2.2-5.9 4.8-7.7 5.8-1.9.9-3.7 2.1-4.1 2.7-.9 1.5 3.3 12.3 7.4 18.7 2 3 5.2 8.8 7.2 12.7 2.8 5.7 4.1 7.3 5.9 7.4 10.1.2 31.4 3.4 33.2 5 .5.5 1.7.9 2.7.9 1.8 0 27.8-25.2 27.8-26.9 0-1.7-5-10.1-11.4-19.3-3.4-4.8-7.3-10.5-8.8-12.6-2.5-3.8-3-4.1-10-5.1-4-.7-10.4-1.8-14.2-2.6-3.8-.8-7.6-1.5-8.5-1.5-.9.1-4.6 2.5-8.3 5.4zm14.5 1.7c2 .5 7.6 1.6 12.4 2.4 4.8.8 8.9 1.8 9.1 2.2.3.9 5.7 9.1 12.5 18.9 2.6 3.8 4.7 7.8 4.7 9 0 1.4-3.3 5.5-9.5 11.5-5.3 5.2-9.9 9.5-10.4 9.7-.4.1-3.4-.4-6.6-1.3-3.2-.8-10.7-2-16.7-2.7l-10.9-1.1-1.8-4.2c-1-2.3-3.5-6.7-5.4-9.8-4.1-6.3-7.7-13.2-7.7-14.5 0-.5 1.9-2.2 4.3-3.7 2.3-1.5 5.6-4.1 7.2-5.7 3.4-3.4 13.7-11.7 14.5-11.8.3 0 2.2.5 4.3 1.1zM3525.9 1015c-13.7 1.6-24.4 9.7-27.4 20.7-.9 3.2-2.7 8.3-4 11.3-1.2 3-3 10-4 15.5-.9 5.5-3.4 17-5.7 25.5-2.2 8.5-4.9 20.2-5.9 26-5 26.8-7.1 38.7-9.3 53.5-1.3 8.8-2.9 17.2-3.4 18.6-.6 1.4-1.7 7.2-2.6 13-.9 5.7-2.3 12.6-3.1 15.4-.9 2.7-2.7 13.8-4.1 24.5-2.1 17.2-10 57.2-12.5 63.8-.5 1.4-1.6 8.1-2.4 15.1-1.7 14.7-4.2 31.1-5.5 36.1-.4 1.9-1.4 8.4-2 14.5-2.2 20.8-5.1 38.5-8.9 54-1.1 4.4-2.7 12.5-3.6 18-.9 5.5-2.3 12.5-3 15.5-2.1 8.2-5.3 28.4-6.1 37.5-.3 4.4-1.7 11.4-3 15.5-3.5 11-10 44-12.3 63-1.2 9.1-3 19.9-4.1 24-9.4 36.3-12.2 47.7-13.5 55.5-.9 4.9-2.5 14.4-3.6 21s-2.8 16-3.9 21c-1.1 4.9-3.5 17.5-5.5 28-1.9 10.4-4.2 22.6-5 27-.8 4.4-3.1 16.8-5 27.5s-4.1 21.6-4.9 24.2c-.8 2.5-2.9 10.6-4.6 18-4.3 18.5-5.6 23.7-9 36.3-1.7 6-4.1 16.1-5.5 22.3-1.3 6.3-2.9 12.8-3.4 14.5-2.7 8.3-10.1 48.6-10.1 54.7 0 4.2-3.8 23.4-8.5 42.5-5.4 22.5-6.3 28.3-6.4 41 0 6.6-.7 16.3-1.5 21.5-2.4 15.2-3.8 40.6-2.6 47 1.4 7.5 5.2 14.9 10.7 21 5.5 6.1 11.4 9.8 19.7 12 3.3 1 11.6 3.8 18.3 6.3 6.7 2.6 16.4 5.3 21.5 6.2 5.1.9 14.7 2.7 21.3 4 6.6 1.3 17.2 2.9 23.5 3.5 6.3.6 14.7 2 18.5 3 3.9 1.1 8.8 2.2 10.9 2.6 2.2.4 6.5 1.7 9.5 2.9 5.2 2.2 20.8 5.8 38.1 9 4.1.7 18.5 2.8 32 4.5 13.5 1.7 26.3 3.5 28.5 4 2.2.5 12.3 1.8 22.5 2.9 22.6 2.5 30.4 3.8 39.5 6.2 3.9 1 12.6 2.7 19.5 3.8 6.9 1.1 17.2 3.1 23 4.4 5.8 1.4 12.8 2.8 15.5 3.2 11.6 1.6 40.2 6.5 43 7.4 1.7.5 5.2 1.8 7.9 3s9 2.8 14 3.5c5 .8 13.2 2.5 18.1 3.9 14.3 4 24.2 5.8 36 6.4 19.5 1 29.9-2.6 42.3-14.5 9.5-9.1 13.7-17.9 19.1-40.3 3.8-15.3 4.6-20.6 7.1-44.9.5-5.2 1.6-11.4 2.4-13.8 3.2-8.9 7.6-39.8 7.6-52.9 0-8.8.6-15.1 1.9-21.2 2.4-10.4 4.6-21.1 7.2-35.1 1-5.8 3.5-17.9 5.4-27 1.9-9.1 5-27.5 7-41 4.6-31.2 7.1-46.3 9.5-57 3.7-17 8.3-42.8 9.5-54.5 1.4-12 15-94.3 18-108.5.9-4.1 2.7-14.9 4-24 1.3-9.1 3.3-19.1 4.4-22.2 4-11.6 8.8-39.7 10.6-62.3.7-9 3-21.3 8.1-42.6 1.8-8 4.3-20.6 5.4-28 1.1-7.4 2.9-17.5 4-22.4 1.1-5 3.3-16.4 5-25.5 1.7-9.1 5.6-26.4 8.5-38.5 3-12.1 7-29.2 8.9-38 2-9.7 5.3-21.1 8.3-29 2.7-7.2 5.4-14.8 6.1-17 2.3-8.1 4.3-23.4 5.2-40.1.8-16.8 1.9-23.8 10.6-67.4 1.3-6.9 2.9-19.7 3.5-28.5.7-9.3 1.7-17.1 2.5-18.6.7-1.5 1.8-5.5 2.4-9 .6-3.5 1.7-9.6 2.5-13.4 4.3-20 5.9-30.9 5.9-39 .1-9 .1-9-4.9-17.9-6.7-12-14.1-19.9-20.8-22.4-2.9-1.1-6.8-2.2-8.8-2.6-2-.4-6.5-1.8-10-3.2-5.7-2.3-24.5-6.4-43.9-9.4-3.6-.6-9.2-1.9-12.5-3-5.7-1.8-17.3-3.9-42.5-7.5-6.3-.9-19.6-3.4-29.5-5.5-9.9-2.2-27-5.5-38-7.5s-21.9-4-24.2-4.5c-2.3-.6-9.4-1.7-15.8-2.5-6.4-.9-14.8-2.6-18.8-4-13.8-4.6-55.3-13.1-73.5-15-3.5-.3-7.5-1.1-8.9-1.6-1.4-.5-6-1.4-10.2-2-4.2-.5-10.3-1.6-13.6-2.4-3.3-.7-9.1-1.7-13-2-3.8-.4-11-1.7-16-3-4.9-1.3-11.9-2.6-15.5-3-3.6-.4-8.3-.9-10.6-1.1-2.2-.2-5.8-1.3-7.9-2.4-2.2-1.1-5.3-2-7-2-1.7 0-5.6-.4-8.6-1-3-.5-8.8-1.1-12.9-1.4-4.1-.3-10.6-1.4-14.5-2.6-7.3-2.1-14.6-2.4-26.6-1zm70.5 54.2c10 2.4 12.8 3.9 16.1 8.3 2.2 2.8 2.7 4.5 2.7 9.4.1 13-7.1 19.9-19.8 18.8-7.1-.5-6.6-1.1-8.3 8.7-.6 3.2-1.6 6.5-2.2 7.2-1.5 1.9-6 1.8-10.9-.2-4.8-2-4.9-2.5-2-19.9 4.6-27.2 6.3-34.4 7.9-34.8 2.2-.6 7.1.1 16.5 2.5zm51.6 8.9c8.3 1.4 9.3 2.3 8.7 7.1-.8 6.2-2.1 7-9.8 6.6-6.7-.3-6.8-.3-7.3 2.6-.8 3.6-.3 4.2 3.6 4.9 1.8.3 4.5 1 6.1 1.6 2.4.9 2.7 1.6 2.7 5.6 0 3.6-.4 4.7-2.5 6.1-2.3 1.5-7.9 1.6-12.5.3-1.1-.3-1.6.5-1.8 2.9-.3 2.7.1 3.4 2.3 4.2 1.4.6 4.1 1 5.8 1 1.8 0 4.3.7 5.6 1.6 2 1.5 2.2 2.2 1.6 6.3-.4 2.5-1 5-1.5 5.4-1.5 1.6-9.3 1.8-14.4.3-2.8-.8-7.9-2-11.4-2.8-3.5-.7-6.8-1.8-7.4-2.5-.7-.9-.3-4.5 1.6-12.5 1.4-6.2 3.7-17.8 5.1-25.8 1.6-9 3.1-14.9 4.1-15.6 1.1-.9 3.1-.8 8.2.2 3.7.8 9.6 1.9 13.2 2.5zm41.2 7c2 .5 3.9 1.3 4.2 1.7.2.4 1.2 5 2 10.2 1.2 6.9 1.6 14.5 1.4 28l-.3 18.5-5.8-.2c-7.6-.3-8.7-1.3-8.7-7.8v-5.3l-4.4-1.1c-7.5-1.8-8.1-1.6-9.7 3.6l-1.5 4.8-5.2-.2c-6.7-.3-9.2-1.7-9.2-4.9 0-3.6 17.9-45.2 20.5-47.6 1.7-1.6 2.9-1.8 7.5-1.3 3 .3 7.2 1.1 9.2 1.6zm32.1 6c2.1 1.2 2.5 5.1 1.2 11.9l-.8 3.5 6.6-6.4 6.5-6.3 6.3.7c11.2 1.3 11.4 3.1 2 12.8-10.2 10.6-11.4 12.3-10.6 15.5.3 1.5 2.6 7.8 5 14 2.5 6.1 4.2 11.9 3.9 12.7-.3.8-1.5 1.7-2.6 2-2.6.9-11.3-.4-13.1-1.8-.7-.7-2.6-4.6-4.1-8.7-3.2-9.1-4.6-11.5-4.6-8.3 0 1.2-.4 2.5-1 2.8-.5.3-1 1.5-1 2.5 0 1.1-.8 3.6-1.7 5.6l-1.8 3.6-5.4-.6c-2.9-.4-5.8-.9-6.2-1.2-1.3-.8-1.1-6.1.6-13.9.9-3.9 2.9-14.4 4.5-23.4 1.7-9 3.5-17 4.2-17.8 1.3-1.6 8.5-1 12.1.8zm66.4 13.2c1.6 1.6.7 9.4-3.8 32.2-1 5.5-1.9 10.3-1.9 10.6 0 .7 9.6 2.3 12.1 2 .8-.1 2.3.6 3.2 1.6 1.5 1.7 1.4 2.2-.2 7.2-1.2 3.8-2.4 5.7-4 6.3-4.2 1.5-20.7-1-27.1-4.2-2.6-1.3-.8-17 5.5-46.2 2.7-12.2 2.6-12.2 9.2-11.5 3.1.3 6.3 1.2 7 2zm39.8 4.2c3.9.9 9.7 2.2 12.9 2.9 3.3.7 6.4 2 7 2.8 1.3 2.1-2 14.4-4.1 15.2-1.4.6-9-.4-16-1.9-2-.5-2.3-.1-2.3 2.9 0 3.2.2 3.4 4.3 3.9 2.3.3 5.9 1.2 8.1 2.2l3.9 1.6-.7 4.7c-.9 6.6-2 7.2-10.6 5.4-3.9-.8-7.3-1.2-7.4-1-.2.1-.6 1.7-.9 3.4l-.6 3.1 7.1 1.1c3.9.6 7.4 1.6 7.8 2.2.9 1.4 0 10.9-1.2 13.3-1 1.9-4.1 1.7-14.8-.8-3-.7-7.7-1.6-10.5-2-6.7-.9-8.5-2-8.5-5.3s2.4-15.8 4.9-26c1.1-4.2 2.7-11.8 3.7-16.7.9-5 2.3-10.1 3.1-11.4 1.6-2.6 1.8-2.6 14.8.4zm31.5 8.8c2.5 1.2 2.5 1.4 3 17.2l.5 16 4.6-10.5c2.6-5.8 5-11.6 5.4-13 1.3-4.2 2.5-5 8.1-5 8.2 0 8.3 1.1 2 16.6-2.9 7.1-6.2 15.1-7.4 17.9-1.1 2.7-3 7.7-4.3 11-3.2 8.8-3.4 8.8-12.6 8-4.4-.4-8.5-1-9.1-1.4-1.9-1.1-3-36.6-1.5-47.4.6-4.9 1.7-9.5 2.4-10.3 1.3-1.6 4.2-1.3 8.9.9zm46 6.2c7.1 1 17.9 3.7 20.8 5.4 2.1 1.1 2.3 1.8 1.7 5.4l-.6 4.2 3.4-3.8c3.5-3.8 5-4.2 12-3 4.8.8 6.5 3.6 4.8 8.4-1 2.9-5.1 30.8-5.1 34.8 0 1.3 1.8 2.2 7.8 3.5 11.6 2.8 11.6 2.7 10.8 9.9-.3 3.4-1 6.5-1.5 7-1 1-5.8.2-16.1-2.6-3-.8-8.3-2.1-11.7-2.7-3.5-.7-6.7-1.8-7.2-2.4-1-1.2.2-24.8 1.9-37.4.5-4 1-8.3.9-9.5v-2.2l-.9 2.2c-1.1 2.6-1.7 2.7-11.1 1.1-7.5-1.2-8.3-.9-9.3 3.4l-.6 2.8h6c5.1 0 6.5.4 8.5 2.5 2.8 2.7 2.9 4.3 1.1 9.5-1.6 4.3-5 5.2-11.9 3.2-2.7-.7-5.1-1.1-5.4-.9-.2.3-.7 2.3-1 4.6-.5 3.8-.4 4 2.3 4.6 1.6.4 5.8 1.4 9.4 2.4l6.5 1.7-.1 4.8c-.1 5.6-2 7.8-6.3 7-21-3.7-30.7-5.6-31.4-6.3-2.2-2.2 3.7-43.9 7.5-52.6 2.7-6.2 4.3-7.6 7.2-6.6 1.1.5 4.6 1.2 7.6 1.6zm-149.7 111.9c3.7.4 12.7 4.5 15.7 7.2.9.7 4.6 2.5 8.4 3.9 3.7 1.4 7.9 3.4 9.4 4.4 6.7 4.5 10.9 7 13 7.6 1.3.4 3.9 3.1 5.9 6.3 2 3.2 5.5 7.8 7.8 10.3 2.4 2.5 5.1 6.1 6 8 1 1.9 3.3 5.3 5.2 7.7 1.9 2.3 4.4 6.8 5.5 9.9 1.1 3.2 2.6 6.9 3.3 8.3.7 1.4 2.1 6.2 2.9 10.6.9 4.3 2 9.7 2.5 11.9.6 2.1.8 5.5.6 7.5-1.9 15.6-2.8 19.5-6.6 29.1-2.3 5.7-5.3 12.1-6.6 14.3-1.4 2.1-3.3 5.7-4.3 8.1-1.9 4.5-18.7 22.1-29.5 30.8-7 5.8-11.9 8.2-28.9 14.2l-12.9 4.6h-15.2c-11.6 0-17-.5-23.1-2-15.4-3.8-23.6-7.2-31.9-13.1-4.4-3.1-10.2-6.8-12.8-8.1-2.7-1.3-6.1-3.9-7.5-5.7-1.5-1.8-4.3-5-6.2-7-1.9-2-4.4-5.8-5.6-8.3-1.2-2.5-3.6-6.5-5.3-8.9-1.7-2.4-3.1-5.2-3.1-6.2 0-1.1-2-7.9-4.5-15.3-5.4-16-6.2-21.9-4.5-36.7 2.2-20.5 8.1-37.8 16.4-48.3 1.8-2.2 3.9-5.1 4.8-6.5.8-1.4 3.1-3.4 4.9-4.4 1.9-1 4.5-3.3 5.9-5.1 1.4-1.8 4.3-4.5 6.5-5.9 2.2-1.4 6-4.4 8.5-6.7 5-4.5 19.3-11.8 28.4-14.4 3.3-1 9.1-2 13-2.4 6.7-.7 25.6-.5 33.9.3zm-153.5 314.7c1.7.6 3.3 1.6 3.6 2.4.2.7-.2 5.1-1 9.7-.8 4.5-2 12.2-2.8 16.9-.8 4.8-1.9 9.6-2.5 10.7-.6 1.2-1.1 4.6-1.1 7.7 0 4.6-.4 6-2.5 8-3.5 3.6-8.6 3.4-11.8-.5-2.3-2.6-2.5-3.6-2-9.2.2-3.5 1.1-8.3 1.8-10.8 1.8-5.9 4.7-22.3 4.5-25.2-.4-4.2 0-5.5 2.1-8.2 2.3-2.9 6.3-3.4 11.7-1.5zm23.6 3.2c3.8.7 4.2 1.5 6.2 12.7 1.9 10.3 1.8 10.4 4.8-2.5.9-3.8 2-7.3 2.5-7.8 1.5-1.5 8.8.3 11.5 2.8 1.9 1.8 2.5 3.1 2.1 5.2-.3 1.5-1.8 9.8-3.4 18.3-1.6 8.5-3.2 18-3.6 21-.4 3-1.4 7-2.3 8.8-1.5 3.3-1.5 3.3-6.6 2.6-8.9-1.2-9.2-1.5-9.8-8.6-.3-3.5-1.6-9-2.9-12.3l-2.3-6-.7 3.5c-2.7 13.4-3.7 16.4-5.8 18.1-3.2 2.6-9.3 2.5-11.6-.1-2.9-3.2-3.2-11.7-.6-17.5 1.1-2.6 2.1-6.7 2.1-9s.6-6 1.4-8.1c.7-2.2 1.8-6.9 2.5-10.7 2-11.6 2.3-12 8.4-11.4 2.8.3 6.5.8 8.1 1zm54.9 7.8c7.3 3.7 9.9 6.1 12.3 11.3 2.8 6.1 3 10.7.5 16.1-3.2 7.2-12.8 13.4-20.7 13.5h-4.1l-1.8 6.7c-3 11.3-3.2 11.6-8.2 11-8.5-.9-10.7-4.4-8.3-12.7.6-1.9 1.9-8.2 3-14 3.6-20.3 5.5-28.8 6.9-30.9 2.1-3.3 14.7-3.9 20.4-1zm30.1 8.9c2.1.4 4.3 1.5 4.8 2.2 1.1 1.6.2 10.8-2.2 21.8-1 4.7-2.1 11-2.5 14.2-.6 5-.5 5.7 1.3 6.7 1.2.6 2.7 1.1 3.4 1.1 1.8 0 4.8-5.2 4.8-8.4 0-1.4.4-4.5 1-6.8.5-2.4 1.4-8.6 2.1-13.8 1.8-15 1.5-14.4 7.9-15.6 2.6-.5 4.3-.2 7 1.4 3.1 1.8 3.5 2.5 3.4 5.9l-.2 3.8 1-3.2c.6-1.7 1.6-3.4 2.3-3.7 1-.3 18.5 2.6 35.4 6 2.3.5 2.3.8 1.8 6.5-.7 8.1-1.7 9.1-8.9 8.7-3.2-.2-5.8-.1-5.8.2-.1 1-3 18.9-4.6 27.5-2.3 12.7-2.4 12.9-9.2 12-6.7-.8-9.2-2-9.3-4.3-.3-5.6.4-12.3 1.6-16.2.8-2.5 1.9-7.7 2.5-11.5.6-3.9 1.4-8 1.7-9.3.4-1.7.1-2.2-1.5-2.2-2.7 0-7-3.6-7.5-6.3-.2-1.2-.5-.4-.6 1.9-.2 8.6-4.9 28.4-7.9 33.7-4.4 7.8-6.9 9.2-16 9.2-9.9-.1-12.2-.7-16.1-4.7-6.3-6.4-7.4-12.8-5.2-29.8.6-4.1 1.1-9.5 1.1-11.9 0-2.5.8-6.3 1.9-8.5 1-2.3 2.1-4.9 2.4-5.9.7-1.9 4-2.2 10.1-.7zm-162.3 47.2l5.6 1.1.6 12.5c.3 6.8.9 12.8 1.4 13.3.6.6 2.2-1.8 4.2-6.3 7.4-16.8 7.8-17.2 14.7-16 4.5.7 4.9 1 4.7 3.4-.2 3.2-6.9 20.3-9.3 23.8-1 1.4-2.5 4.7-3.4 7.3-.9 2.7-2.3 6.1-3.1 7.6-1.6 3.2-8 9.1-9.8 9.1-3.4-.1-5.8-1.6-8.3-5.1-2.9-4.2-2.7-3.2-4.9-30.4-.3-4.4-.8-8.7-1.1-9.5-.8-2.3.7-12 1.9-12 .6 0 3.6.5 6.8 1.2zm61.9 5c2.5 1.3 5.5 3.8 6.7 5.7 3.3 4.9 3.1 15.4-.3 28-4 14.7-5.4 18.2-9 22-3.2 3.5-3.4 3.6-11.1 3.6-7.4 0-8.2-.2-12.8-3.5-6.9-4.9-8.7-8.8-8-17 2.3-25.1 5.3-33.3 14.6-38.9 4.8-2.9 14-2.9 19.9.1zm33.8 11.9c2.8 1.1 2.8 1.8-.3 16.4-1.3 6.5-2.7 14.5-3.1 17.6l-.6 5.7 5.2.7 5.2.7-.4 6c-.3 3.6-1 6.3-1.9 6.9-2.1 1.4-14.8.1-18.9-2-6.7-3.4-7-6.9-2.4-27.1 1.3-5.8 2.6-13.2 3-16.5 1.1-10 1.5-10.6 7.1-9.8 2.6.3 5.8 1 7.1 1.4zm30.8 3.4c1 .8 2.7 1.5 3.6 1.5 2.5 0 2.9 1.4 1.9 6.2-2.7 11.9-5.2 27.8-4.9 31.3.2 2.8.8 4.1 2 4.3 2.4.5 3.4-2.5 6.4-17.3 1.3-6.6 2.9-14.4 3.5-17.4l1.1-5.4 6.6.6c9.9 1 9.9.8 6.3 18.3-3.8 17.9-7.5 30.4-9.8 33.3-1 1.2-4.4 3-7.7 4.2-5 1.7-6.6 1.9-10.9.9-7-1.5-11.2-4.9-13.1-10.8-1.4-4.1-1.5-6.5-.6-16.7.6-6.6 1.9-16.7 2.8-22.5 1.8-10.3 1.9-10.5 4.7-11.1 4.9-1.1 6-1 8.1.6zm44.6 7.5c4 .6 8.2 1.2 9.3 1.5 1.1.2 2.6.4 3.3.4.7.1 1.2 1.6 1.2 4 0 2.1.3 5.9.6 8.5l.7 4.7 3.3-7.7c1.9-4.3 3.6-7.9 3.7-8.1.2-.2 4.9.4 10.5 1.4 6.7 1.1 10.2 2.1 10.2 2.9 0 .7-.9 7.3-1.9 14.6-1.1 7.3-2.5 18.3-3.1 24.4-.7 6.1-1.6 11.8-2.1 12.5-.6 1.1-2 1.1-7.4.2-3.7-.6-7-1.4-7.3-1.8-.3-.3-.6-4-.5-8.3l.1-7.7-2.5 6.5c-3 8-3.8 9-7.3 9-8.9 0-11.4-2.3-11.2-10.3 0-2.7-.3-5.8-.7-6.9-.6-1.7-1-.7-2.1 4.3-2 10-2 10-9.3 9.3-3.4-.4-6.6-1-7-1.4-1.3-1.1.6-11.8 5.7-32 5-20 5.3-21 6-21 .2 0 3.8.5 7.8 1zm67.5 11c5.4 1.1 11.2 2 12.9 2 3.5 0 4.8 1.2 5.7 5.1.8 3.1-.9 9.5-2.6 10.1-.6.3-4.3-.1-8.2-.7-3.8-.7-7.3-1-7.7-.8-.5.2-.8 1.5-.8 2.8 0 2.8 2 4.1 8.7 5.5 7.2 1.6 7.5 1.9 6.4 7.1-1.5 6.6-3.4 7.7-12.2 6.8-4-.5-7.4-.7-7.5-.6 0 .1-.4 1.4-.7 2.8l-.7 2.6 8.3.7c9.8.8 13.1 2.6 13.5 7.7.2 2.6-.3 4-2.2 5.8l-2.4 2.3-13.1-1.6c-7.2-.9-14.9-2.3-17.1-3.2-5-2-5-1-.5-31.9 1.9-13.2 3.5-24.1 3.5-24.3 0-.8 8.2.1 16.7 1.8zm-155.1 148.7c-3.3 10.8-6.2 50.1-4 52.3.6.6 5.9 1.5 12 2 6 .6 13.6 1.9 16.9 2.9 7.9 2.5 17.1 3.6 17.9 2.3.9-1.4 5.2-24.5 7.1-38.2.9-6.3 2.1-12.1 2.7-12.8 2-2.3 9.1-1.4 14.2 1.8 10.1 6.5 29.7 30.2 37.3 45.5 9.9 19.6 14.1 52.5 9.7 75-4.5 22.3-10.5 33.9-26 49.7-19 19.4-45 31.9-69.6 33.5-15.9 1-40.7-2.6-54.3-7.9-13.5-5.3-21.6-10.9-35.9-25.2l-13.1-13.1-7.1-14.5c-7.1-14.5-7.9-16.6-10.9-31.2-3.6-17.6 2.8-45.4 16-69.6 5-9 13.2-20.4 16.6-22.8 1.4-1 4.9-3.7 7.7-5.9 8.6-6.7 24.9-16.2 31.2-18 1.4-.4 5-1.9 8-3.2 5.6-2.6 12.1-4 19.8-4.2 3.7-.1 4.3.2 3.8 1.6zm-132.7 295.2c-2.5 2.1-5.8 5.7-7.3 8-6.1 8.7-11.2 10.7-16.7 6.2l-2.3-1.8 3.4-5.9c1.9-3.2 6.6-9.1 10.4-13.1l7-7.4 5 5 5 5-4.5 4zm185.4 33.8c4.4 10 5.2 14.9 3.2 18-3.3 5-7.5 2.2-10-6.4-.9-3.2-2.6-7.5-3.6-9.6-2.1-4.1-1.9-5.4 1.5-6.7 4.9-2 6.2-1.3 8.9 4.7z"/><path d="M3590.6 1083.6c-.3.9-.6 3.1-.6 5 0 3.1.3 3.4 2.8 3.4 3.2 0 6.2-2.7 6.2-5.4 0-1-1.4-2.3-3.5-3.2-4.2-1.7-4.2-1.7-4.9.2zM3676.9 1109.1c-1.7 3.4-1.8 4.3-.7 5 2.9 1.9 3.8.9 3.8-4.1 0-2.8-.2-5-.5-5-.2 0-1.4 1.9-2.6 4.1zM3719.5 1247.4c-3.3.7-9.2 2.9-13.1 4.9-3.9 2-7.6 3.7-8.3 3.7-2.2 0-7.5 3.2-9.4 5.7-1.1 1.3-3.8 3.6-6.1 5-8.9 5.5-25.9 26.2-31.4 38.1-5.3 11.7-6.8 27.1-3.8 39.7 1 3.8 1.9 9.2 2.2 12 .9 10.4 2.6 18.5 4.5 20.9 1 1.3 1.9 3.2 1.9 4.1 0 3.3 4.5 10.8 8.3 13.8 2 1.7 5.5 5.3 7.7 8.1 2.1 2.8 5.7 6.2 8 7.6 2.3 1.4 6.2 4.6 8.7 7.2 3.9 4 6 5.2 13.9 7.8 9.3 3.1 9.7 3.2 22.7 2.5 17-.8 27.1-2.2 32.7-4.6 2.5-1 6.7-2.3 9.3-2.9 6.4-1.4 12.6-4.4 16.6-8 1.8-1.7 3.9-3 4.7-3 1.8 0 17.8-15.7 22.9-22.4 2.1-2.8 4.7-7 5.7-9.5 1.1-2.6 2.9-6.6 4-9 4.1-9.1 5-17.2 3.8-33-.6-8.1-1.5-16.2-2-18.1-1.3-5.2-5.8-16.7-7.5-19.3-.8-1.2-2.1-4.2-2.9-6.6-2.8-7.6-15-20.6-25.6-27.1-4.1-2.5-8.8-5.7-10.5-7.1-6.6-5.7-13.1-7.9-28.5-9.8-14.4-1.8-22.3-2-28.5-.7zm33.7 7.6c7.9 1.2 16.8 4.8 20.8 8.4 1.4 1.2 5 3.8 8 5.8 3 1.9 7.2 4.6 9.2 5.9 2 1.3 4.7 4.1 5.8 6.2 1.2 2.1 3.5 4.7 5.1 5.9 1.6 1.2 3.4 3.8 4 5.7.6 2 2.2 5.5 3.5 7.8 5.7 9.9 8.3 19.5 9.4 34.8 1.4 19.3.9 21.9-8.4 43-2.3 5.2-23 26.5-25.7 26.5-.5 0-2.6 1.5-4.6 3.4-4.3 3.8-8.4 5.7-16.3 7.6-3 .7-6.5 1.8-7.7 2.6-3.3 2.1-20.9 4.4-33.2 4.4-9.3 0-12.1-.4-18.3-2.6-8.3-3-11.8-5.2-13.6-8.6-.7-1.2-3.5-3.5-6.2-5.1-3-1.6-6.4-4.7-8.5-7.6-1.9-2.7-5.1-5.9-6.9-7.2-3.6-2.4-7.6-8.4-7.6-11.3 0-.9-1.1-3.8-2.5-6.4-1.8-3.5-2.7-7.4-3.5-14.7-.5-5.5-1.6-12.9-2.5-16.5-.8-3.6-1.6-8.8-1.7-11.5-.1-4.8 2.2-16.8 4.5-23 4.7-13.3 33.4-43.8 43.7-46.5 2.5-.6 6.5-2.5 9-4 4.2-2.7 10-4.6 16-5.2 3.5-.4 19.6.8 28.2 2.2z"/><path d="M3720.7 1301.9c-12.1 4-24.1 17-28.4 30.9-3.1 10.1-.5 29.7 4.6 34.5 7.3 7 25.4 13.7 36.6 13.7 6 0 20.9-3.1 24.5-5 3.1-1.6 12.7-14.1 14.9-19.4 3-6.8 2.7-13.9-.9-24.3-4.6-13.2-11.6-23.5-18.4-27-9-4.6-24.3-6.2-32.9-3.4zM3672.6 1579.6c-.4 1.9-1 4.2-1.3 5-.8 2.1 2 1.7 5.1-.7 3.1-2.5 3.2-2.9.6-5.7-2.8-3-3.7-2.8-4.4 1.4zM3596 1641.7c-2.9 9.1-3.7 20.1-1.7 22.7 1.4 1.9 1.5 1.9 3.2-.8 2.2-3.3 4.1-11.4 5-21.1l.7-7.5h-2.5c-2.3 0-2.8.7-4.7 6.7zM931.8 1239c-1.9 1.4-3.4 4.2-4.8 9.1l-2.1 6.9h-7.2c-4 0-9 .5-11.2 1-2.2.5-7.6 1.2-12 1.6-4.4.3-9.1 1.2-10.5 1.9-1.4.7-5.4 1.7-8.9 2.4-3.6.6-9.7 2.6-13.8 4.6-4 1.9-7.9 3.5-8.7 3.5-.8 0-2.9 1.2-4.6 2.6-3.1 2.7-8.3 6.3-21.5 15-3.8 2.5-7.9 5.4-9 6.4-1.1 1-4.5 3-7.5 4.6-5.9 3-21.8 17.2-26 23.2-4.5 6.6-7.8 12.4-17.5 31.8-10.4 20.7-12.2 26.8-14.6 48.3-.6 5.3-1.9 13.9-2.9 19.1-1.1 5.2-2 12.6-2.1 16.5-.3 10.9.7 38.1 1.5 39.3.4.7 1.2 5.3 1.7 10.4.7 5.9 1.9 11.3 3.5 14.7 1.3 2.9 2.4 6 2.4 6.8 0 .8 3.2 8 7 15.9 3.9 8 7 14.8 7 15.2 0 .7 7.2 13 10.7 18.4 5.2 7.8 20.8 22.3 32.6 30.2 6.4 4.3 12.7 8.8 14 9.8 1.2 1.1 3.8 2.8 5.7 3.8 7.3 3.7 27.7 11.9 31.5 12.5 2.2.4 6.3 1.6 9 2.6 5.2 1.9 23.3 6.4 29.5 7.4 9.2 1.4 38.8.3 49.6-1.8 3.9-.8 9.1-1.3 11.5-1.2 2.4.1 5.7-.1 7.4-.6 1.6-.4 5.9-1 9.5-1.3 6.5-.6 8.5-1 19.3-4 10.8-2.9 37.9-18.9 54.7-32.3 18.1-14.4 34.2-35.1 45.1-57.8 10.3-21.5 13.4-32.6 13.8-49 .1-4.9.4-9.2.6-9.5.8-1.3 2-16.1 2-25-.1-24.6-3.5-40.6-13.6-63-3.8-8.5-7.6-16.6-8.5-18-.8-1.4-2.9-5.4-4.5-9-1.7-3.6-3.6-7.2-4.3-8-.8-.8-2.5-3.5-3.8-6-2.5-4.5-11.9-15.2-19.3-21.9-2.2-2-7.4-6.8-11.5-10.6-4.1-3.9-9.7-8.9-12.5-11-2.7-2.2-8.5-7.1-12.8-11-10.4-9.3-18.9-15.1-23.5-16-2-.3-5.6-1.3-8-2.1-2.3-.8-5.7-1.4-7.3-1.4h-3.1l.6-5.9c.8-7.5-.5-10.8-4.8-12.6-1.9-.8-11-2.8-20.2-4.5-24.6-4.6-24.4-4.6-27.6-2zm-16.8 58.5c0 .7-1.4 7.3-3.1 14.6-4 17.7-5.7 27.3-6.1 33.7l-.3 5.4 10 3.3c5.5 1.8 12.3 4.2 15 5.3 4.4 1.8 13.4 2.8 20.3 2.3 3.1-.2 5.8-5 7.1-12.7.6-3.5 1.6-9.4 2.2-13.2 1.1-6 8.2-27.6 9.9-29.5 1.3-1.5 8.5 2.1 14.8 7.4 16.9 14.2 20.8 18.9 30.4 37.4 3.8 7.3 9.3 21.3 10.7 26.9 3.6 14.9 1.7 42.4-3.9 57.1-4.9 12.9-13 27.9-18.4 34.3-7.5 8.8-20.9 20.6-28.9 25.3-7.7 4.6-26 12.6-32.2 14.1-10 2.4-24.1 3.5-33.3 2.6-16.9-1.6-38.9-9.4-49.4-17.4-7.1-5.5-16.8-15-21.3-20.8-1.7-2.1-4.2-5.3-5.6-7-2.9-3.6-6.3-9.5-12.4-21.6-10.7-21.2-10.4-20.3-12.1-40.5-1.5-18.9 6.4-47.8 16.8-61.6 1.9-2.4 4.4-6.1 5.6-8.1 2.6-4.2 6.1-7.1 17.9-14.9 25.4-16.7 37.8-22.1 54.8-23.7 9.8-.9 11.5-.7 11.5 1.3zM2907.8 1248.7c-3.9.6-4.7 2.2-6 11.7l-1.2 8.6-8 .1c-4.5 0-12.7 0-18.2-.1-10.8-.1-20.5 1.8-33.1 6.5-3.7 1.4-8.7 2.5-11.7 2.5-7.3.1-19 3.2-31.1 8.2-3.3 1.4-8.5 3.1-11.5 3.8-7.4 1.7-20.6 7.9-26.8 12.6-2.8 2.2-7.7 5.5-10.8 7.4-3.1 1.9-7.5 6-9.9 9-2.3 3-8.1 9.1-12.7 13.5-4.7 4.4-11 11.5-14.1 15.7-3.1 4.2-7.9 9.6-10.7 11.9-7.8 6.5-13.9 17.5-26.7 47.9-8.7 20.8-11.4 28.6-12 34.5-.3 3.3-1.1 7.8-1.8 10-1.7 5.1-4.4 23.2-4.6 31-.1 3.3.5 9.6 1.4 14 .9 4.4 1.8 10.7 2 14 .3 3.3 1.2 8.7 2 12 .9 3.3 2.3 9.8 3.1 14.5 1.1 5.8 2.8 11 5.6 16.2 2.2 4.3 4.9 11.2 6 15.5 1.2 4.3 3.3 9.6 4.8 11.7 1.5 2.1 5.8 8.8 9.5 14.9 7.3 11.8 14.7 21.3 26.7 34.1 4.2 4.5 8.9 9.8 10.5 11.9 1.5 2.1 4.1 4.5 5.7 5.3 4 2.1 10.8 8.3 10.8 9.9 0 .8 2.3 3.1 5 5.2 2.8 2.1 7.2 5.4 9.8 7.4 4.2 3.1 18.6 11 38.7 21.3 5 2.5 9.9 4 16.5 5.1 5.2.8 12 1.9 15 2.5 3 .5 8.5 1.2 12.2 1.5 5.2.5 6.7 1 7.1 2.4.4 1.7 2.2 1.8 25.8 1.7 24.8-.2 25.7-.3 38.4-3.3 7.2-1.7 16.2-3.7 20-4.3 8.3-1.3 15.7-3.9 32-10.9 6.6-2.9 13.8-6 16-6.9 10.1-4.3 43-30.7 49.3-39.6 2.3-3.3 5.2-6.7 6.5-7.5 3.3-2 20.9-22.8 23.3-27.5 1.1-2.3 3.5-6.4 5.3-9.1 1.7-2.8 3.9-7.5 4.8-10.5.8-3 3.1-8.6 5-12.4 4.4-8.8 13.3-34.5 13.3-38.5 0-1.7 1.1-6 2.4-9.5 1.6-4.2 2.7-9.6 3-15.3.9-13.9 1-43.3.2-49.3-1.4-10.1-1.7-11.2-3.7-15.1-1.1-2.2-3.3-9.2-5-15.7-1.7-6.4-3.6-14-4.4-16.7-.7-2.8-3.5-9.6-6.3-15-2.7-5.5-5.3-11.1-5.7-12.5-1-3.3-4.7-9-7.4-11.4-1.1-1.1-2.1-2.7-2.1-3.7 0-2.2-6.2-13-8.6-15-1-.8-4.3-4.6-7.3-8.4-15.6-19.5-17.3-21.3-22.5-23.6-2.8-1.3-7-3.9-9.4-5.6-2.4-1.8-4.8-3.3-5.2-3.3-.5 0-4.7-2.3-9.4-5-4.7-2.8-8.9-5-9.5-5-.5 0-3.1-1.8-5.6-4-2.6-2.3-6.8-5.1-9.3-6.4-2.6-1.3-6-4.2-7.7-6.5-2.2-2.9-4.3-4.5-7.8-5.7l-4.9-1.6.7-7.7c.8-9.1-.6-15.5-3.8-17.5-3.5-2.2-13.7-4.5-25.5-5.6-10.8-1-11.6-1-16.4-.3zm-16.3 76.4c-1.5 8.5-3.5 20.3-4.6 26.4-1 6-2.4 11.8-3 12.9-.8 1.4-.8 2.2.3 3.2 2.2 2.1 27.3 5.4 44.8 5.8l4.5.1.7-8.5c.4-4.7 1.6-12.3 2.7-17 1-4.7 2.9-12.8 4.1-18 1.2-5.2 2.4-9.8 2.6-10.2.3-.4 2.6 0 5.2.8 2.6.9 7.1 2.2 10.1 3 8.6 2.4 16.3 6.8 25.8 14.7 17 14.2 30.4 29.1 34.4 38.5 1.1 2.5 3.6 7.2 5.5 10.3 6.8 11.3 11.1 26.9 14 51.4 2.5 21.4 1.3 39.9-3.6 55.7-1.9 6.2-7.2 14.8-11.5 18.8-1.5 1.4-5.3 5.6-8.3 9.5-15.8 19.9-25.2 28.3-37.5 33.9-4.1 1.9-9.7 5-12.3 6.9-2.7 1.9-10.6 6.5-17.6 10.1-11.1 5.7-14 6.8-22.5 8.2-5.3.8-10 1.7-10.3 1.9-.8.5-19 3.3-24.5 3.8-2.2.2-5.6 0-7.5-.5-1.9-.4-9.1-1.5-16-2.4-7.4-.9-14.8-2.5-18-3.9-3-1.2-7.7-2.7-10.5-3.3-4.2-.9-9.7-3.5-21-10-1.1-.6-6.3-3.1-11.5-5.6-8.5-4-10.3-5.3-17.1-12.8-4.2-4.6-8.6-10.3-9.8-12.7-1.2-2.3-3.9-7.1-6-10.4-2.1-3.4-4.6-8.7-5.6-11.7-.9-3-3.7-9.1-6.1-13.5-3.3-6.1-4.6-10.1-5.8-17-.8-5-2.2-12.4-3.1-16.5-3-13.2-.4-38 5.4-52.4 3.2-7.9 14.3-32.4 16.8-37.1.9-1.7 6.5-9.1 12.5-16.6 15.2-19.2 30.6-31.8 50.7-41.8 6.2-3.1 12.4-6.2 13.7-6.9 1.5-.8 7.6-1.5 16.1-1.8 7.6-.2 16.3-.8 19.3-1.2 3-.4 5.9-.5 6.3-.1.5.4-.3 7.6-1.8 16zM1488 1344.7c-1.6.6-3.5 2.4-4.4 4-1.2 2.4-2.1 2.9-5.8 3.1-6.2.3-9.3 1.1-15.7 3.9-4.7 2.1-7.4 2.6-17.5 2.9-10.6.3-12.4.6-18 3.2-3.3 1.6-8.4 3.7-11.3 4.6-2.8 1-8.2 3.9-12 6.5-3.7 2.6-9.2 6-12.1 7.6-3 1.6-6.7 4.6-8.3 6.7-1.7 2.1-5.6 5.1-8.8 6.8-3.9 2.1-10.6 7.8-20.3 17.4l-14.6 14.4-6.6 13.3c-3.7 7.3-7.1 13.8-7.5 14.4-1.1 1.3-9.5 21.8-12.7 30.9-3.7 10.4-5.2 18.8-5.9 31.9-.6 12.4-.7 13.5-2.6 29-1.3 11.1-.7 21.1 2.1 33.7 1 4.7 2.1 13.4 2.4 19.3.5 10 .9 11.6 4.6 19.4 2.2 4.7 4.5 10.3 5 12.4.6 2 2.8 6.1 5.1 9.1 2.2 2.9 5.3 8.1 7 11.6 2.3 4.7 4.3 7.2 8.3 10.2 3 2.3 6.6 5.8 8.1 7.9 3.9 5.7 14 13.9 21.2 17.1 3.5 1.6 7 3.6 7.8 4.4.8.8 4.5 2.4 8.2 3.7 3.7 1.2 9.2 3.4 12.2 4.9 8.7 4.3 37 13.9 43 14.6 5 .6 9.1 1.6 22.1 5.7 4.7 1.4 12.5 1.4 25-.1 4.1-.5 11-.8 15.3-.6 6.1.3 9.1-.1 13.5-1.7 3.1-1.2 7.3-2.5 9.2-2.9 1.9-.5 5.8-1.6 8.5-2.5 2.8-.9 7.2-2 9.9-2.5 2.6-.6 7.4-2.6 10.6-4.5 3.1-1.9 8-3.9 10.8-4.5 2.9-.7 7.3-2.7 10.4-4.9 2.9-2.1 7.8-5 10.8-6.4 4.1-2 9.5-6.6 21-17.9 8.5-8.4 16.7-16.7 18.1-18.3 1.4-1.7 6.7-6.6 11.7-10.9 13-11.3 20.6-22.9 26.1-39.6 4.6-14.1 8.1-29 8.2-34.7 0-2.1.6-7.1 1.3-11 .8-4.4 1.2-13 1-21.5-.2-12.7-.6-15.4-3.3-24.2-1.7-5.4-3.1-11-3.1-12.5 0-1.4-3.4-9.4-7.5-17.6-4.1-8.3-10-21.5-13.1-29.4-7.1-18.4-14.6-31.1-18.3-31.1-.9 0-2.6-1.5-3.8-3.3-3.8-5.5-11.2-12.6-15.5-14.8-3.5-1.8-8.6-5.4-26.2-18.8-3.7-2.7-25.5-13.3-31.2-15-12.4-3.8-12.4-3.8-12.4-9 0-7.1-3.9-10.1-14.5-11.5-2.8-.4-6.8-1.2-9-1.8-6.8-1.8-23.3-2.5-26.5-1.1zm-17.3 77.7c-.3 8.9-1.3 20.9-2.3 26.8-1.9 12.2-1.6 13.4 4.5 14.4 2 .3 6.3 1.4 9.6 2.4 7.1 2.2 14.1 3.7 21.1 4.5 5.6.7 10.6-1 12.2-4.3 1.3-2.3 3.7-14.2 6.2-29.7 3.1-19.1 3.6-20.7 6.3-19.9 5.3 1.5 19 11.1 28 19.4 9.6 8.9 22.7 28.6 25.2 38 .7 2.5 3.2 10.8 5.5 18.5 4 13.4 4.2 14.6 4.2 27.2 0 14-.3 15.2-5.9 29.8-4.6 11.9-6.8 16.1-11.3 21.5-2 2.5-5.2 6.7-7 9.5-4 6-18.4 20.5-20.3 20.5-.7 0-3.8 1.8-6.7 4-2.9 2.2-5.9 4-6.5 4-.6 0-5.4 2.1-10.6 4.6-5.2 2.5-11.6 5.3-14.4 6.1-2.7.8-6.8 2.4-8.9 3.5-3.5 1.8-5.4 2-17.5 1.6-11.8-.4-14.9-.9-23.1-3.6-5.2-1.7-12-3.4-15-3.8-7.6-.9-23.1-8.5-28.4-13.9-2.3-2.3-5.3-4.9-6.8-5.6-2.6-1.3-17.6-17.1-22.2-23.4-4.4-5.8-10.5-22.7-11.5-31.6-.5-4.6-1.9-12.6-3-17.6-1.2-5.1-2.1-11.1-2.1-13.3 0-5.2 2.6-18 5-24.5 6.2-17.1 8.3-22.5 10.1-26.9 2.3-5.3 8.2-13.8 11.9-17.1 1.2-1.1 3-3.7 3.9-5.7 1.9-4.4 12.2-12.3 19.5-14.9 2.7-1 5.7-2.6 6.7-3.5 1-.9 5.9-2.9 11-4.5s10.9-4 13-5.4c2.4-1.8 5.7-2.8 10-3.3 10.9-1.3 10.3-2.4 9.6 16.2zM2032.2 1447.2c-.5.7-1.5 2.9-2.2 4.9l-1.3 3.6h-14.6c-12.5-.1-15.5.2-20.6 2-3.3 1.2-8.8 2.4-12.2 2.7-4.9.3-7.9 1.3-13.7 4.5-4 2.3-8 4.1-8.8 4.1-2.4 0-15.8 7.2-21.3 11.4-2.7 2.1-7.3 4.9-10.3 6.2-2.9 1.3-9 5.7-13.6 9.8-4.6 4-12.4 10.6-17.2 14.4-9.5 7.6-14.5 12.9-22.1 23.8-2.6 3.8-6.5 9.1-8.5 11.9-2.1 2.7-4.7 7.5-5.9 10.5-1.1 3-3.3 7.7-4.9 10.5-3.7 6.6-12.4 28.4-14.4 36.2-.9 3.4-1.6 8.4-1.5 11 .1 6.7-1 20.1-2.2 24.4-2.3 9.1-.1 36.3 4.3 51.8 7.1 24.9 15 41 25.1 51.6 1.1 1.1 5.7 7 10.3 13.2 6.2 8.2 10.6 12.9 16.5 17.5 4.5 3.5 10.4 8.3 13.3 10.6 2.8 2.4 7.2 5.4 9.7 6.8 5.3 2.6 13 7.6 17.1 11 1.5 1.2 5.3 3 8.4 3.9 3.1.9 8.3 2.9 11.6 4.5 3.4 1.6 10 4.1 14.7 5.6 4.7 1.4 11.8 3.7 15.8 5 8.5 2.8 23.4 3.4 28.6 1 1.8-.8 6.4-1.7 10.2-2 3.9-.3 10.6-1.2 15-2.1 4.4-.8 11.4-1.8 15.5-2.1 4.1-.3 10.2-1.7 13.5-2.9 3.3-1.3 8.9-3.1 12.5-4 3.6-.8 8.6-2.7 11.2-4 2.6-1.4 5.4-2.5 6.2-2.5 2.4 0 16.7-7.9 22.6-12.5 3-2.3 7.6-5.1 10.2-6.3 6.5-2.8 10.9-6 21.7-15.4 16.1-14.2 24.2-22.1 27.5-26.9 17-24.9 18.9-28.7 22.1-43.9 7.3-34.1 8.3-52.8 5-87.5-1.7-18-15.2-50.9-26.2-64.1-3.2-3.8-9.1-11.4-13.2-16.9-4.1-5.5-12.9-15.3-19.5-21.7-11.8-11.5-16.6-15-33.1-23.8-4.4-2.4-8.7-4.8-9.5-5.5-3.6-2.8-12-7.3-17.7-9.4-5.4-2-6.3-2.7-6.3-4.8 0-3.8-1.7-6.1-6.3-8.4-6.6-3.4-9.4-4-22.9-4.9-9.6-.6-13.1-1.1-14.3-2.4-2-1.9-2.9-2-4.3-.4zm-12.2 56c0 .7-.7 3.5-1.6 6.3-1.6 5.1-4.3 31.1-4.4 42.1v6.1l6.1 2.8c5 2.2 7.1 2.6 11 2.2 3.1-.4 6.8 0 10.1 1 6.8 2 16.3 1.3 19-1.5 1.3-1.3 2.2-4.2 2.8-8.8.5-3.8 2-10.5 3.3-14.9 1.3-4.4 2.8-10.7 3.2-13.9.4-3.3.9-6.5 1.2-7.3 1.8-4.5 16 3.2 31.7 17.2 13.7 12.2 25.1 29.1 28.2 41.8.8 3.4 2.4 8.8 3.5 12 1.1 3.2 1.9 8.4 1.9 12 0 3.4.8 10.9 1.7 16.5 1.9 12.1 1.4 16.2-4.3 32.7-1.9 5.6-3.4 10.9-3.4 11.8 0 1-1.7 3.6-3.8 6-2.1 2.3-4.9 5.8-6.2 7.7-3.3 4.8-10.5 13.3-16.6 19.6-4.6 4.6-13.3 10.4-15.8 10.4-.6 0-3.5 1.7-6.6 3.9-8.8 6.1-21.2 10.5-33 11.6-4.1.4-9 1.3-10.9 2.1-3.9 1.6-11.2 1.8-16.1.4-1.9-.6-7.8-1.7-13-2.6-14.2-2.2-34.5-8.6-40.4-12.7-7.9-5.5-19.9-16.4-22.6-20.7-1.7-2.6-3.9-5.5-5.1-6.6-2.9-2.6-10.4-18.2-14.4-29.9-1.9-5.5-4.3-16-5.5-23.5-2-13-2.1-13.9-.5-21 .9-4.1 2.1-9.3 2.5-11.5 1.6-7.5 6.9-22.3 10.6-29.7 4.2-8.4 14.4-21.6 23.6-30.4 3.5-3.3 10.9-8.9 16.6-12.4 5.7-3.4 12.1-7.7 14.3-9.6 2.6-2.2 5.8-3.7 9.7-4.4 3.1-.7 7.7-2.3 10.2-3.6 4.9-2.5 13-3.3 13-1.2zM520.3 1497.1c-8.6 1.1-20.7 5.3-26.7 9.3-2.8 1.8-6.7 4.1-8.6 5.1-6.5 3.3-21.1 16.2-24.2 21.4-1.2 2-3.8 5.5-5.9 7.7-10.4 11.5-14.7 24.6-16.4 49.9-.5 7.8-.2 10.5 2 19.4 1.4 5.6 3 11.2 3.5 12.4.4 1.2 1.3 4 1.9 6.3.6 2.3 2.6 6.1 4.4 8.5 1.8 2.4 4.1 6.6 5.2 9.3 2.6 7 13.8 18.2 23.6 23.5 15.7 8.5 33.3 12.9 44.9 11 3.6-.6 8.3-1.2 10.5-1.4 2.2-.1 6.5-1 9.5-1.9 3-.9 8.9-2 13-2.6 9.8-1.2 16.9-3.4 21.1-6.5 1.9-1.3 5.1-3.4 7.3-4.5 2.1-1.2 9.4-7.6 16.1-14.3 10.4-10.3 12.9-13.5 16.3-20.2 4.7-9.5 7.6-18.6 9.7-30.9 1.9-11 1.9-19.4.1-31.1-1.7-10.7-3.3-15.3-7.5-22-1.7-2.7-3.1-5.3-3.1-5.8 0-2.2-9.5-13.9-17.9-22-13.3-12.8-24.1-17.1-50.1-20.2-13.5-1.6-19.1-1.7-28.7-.4zm26.7 7.3c15.6 1.8 24.5 4 33.6 8.2 10.1 4.8 24.8 20.1 32 33.4 6 11.2 6.9 13.8 8.5 24.9 2.5 17.6-1.1 40.1-8.7 55.4-2.9 5.8-6 9.5-15.5 18.9-6.5 6.5-13.5 12.7-15.6 13.8-2.1 1.1-5.2 3.1-7 4.4-2 1.4-6.5 3-12 4-4.8.9-11.9 2.4-15.8 3.2-13.7 3-26.9 4.5-34 3.8-8-.6-21.1-5-30.5-10.2-8.7-4.7-18.7-14.8-21.2-21.4-1-2.7-3.2-6.6-4.8-8.7-3-3.7-6.4-12.9-9.5-25.9-1.4-5.8-1.7-10.1-1.3-20 .8-20.4 4.9-32.8 13.8-42.6 2-2.3 4.9-6 6.3-8.3 4.6-7.4 10.8-12.3 22-17.4 2.6-1.2 4.7-2.5 4.7-2.9 0-1.6 11-7.9 17.2-9.9 6.2-2.1 15.6-3.7 22.3-4 1.7 0 8.6.6 15.5 1.3z"/><path d="M509.4 1560.9c-3.5 1.5-15.8 16.9-18 22.4-.3.8-1.6 2-3 2.7-1.3.7-2.4 1.9-2.4 2.7 0 2 5.8 12.1 10.3 17.8 2.1 2.7 4.5 6.4 5.2 8.2.7 1.7 2.4 3.8 3.7 4.7 2.4 1.5 11.6 2.2 24.7 1.8 7.3-.2 7.5-.3 11.4-4.5 2.2-2.3 5.6-6.7 7.6-9.7 2-3 4.2-5.9 4.9-6.3.7-.5 2.9-2.2 4.8-3.9 4-3.6 4.3-6.5 1-10.5-1.4-1.7-2.8-5.4-3.6-9.7-.7-3.8-2-7.6-3-8.6-4.1-4.1-37.8-9.6-43.6-7.1zm18.8 7c2.4.5 7.9 1.8 12.3 2.8l7.9 1.9 1.3 6.4c.7 3.6 2.2 7.7 3.3 9.2 1.1 1.5 2 2.9 2 3.2 0 .2-1.6 1.4-3.5 2.6-1.9 1.2-5.4 5.1-7.9 8.8-8.1 12-7.9 11.9-19.8 12.1-14 .1-15.1-.2-17.2-5-1-2.3-3.1-5.6-4.7-7.3-1.6-1.8-3.9-5.2-5.3-7.6l-2.4-4.2 3.7-5.8c2-3.2 5.7-8.5 8.3-11.9l4.8-6.1h6.5c3.6 0 8.4.4 10.7.9zM3916 2140.4c-2.5.7-7.2 3-10.5 5.1-7.3 4.6-21.2 18.4-24.8 24.5-8.9 15.3-13.1 35-11.7 54.5 1 12.7 4 20.3 13.8 34.5 15.3 22.5 29.8 36 45 42.2 17 6.8 28 8.2 42.5 5.4 4-.8 9.2-1.7 11.6-2 9.4-1.4 25.1-8.1 30.2-12.9 4.9-4.7 9.7-11.2 12.9-17.7 1.8-3.6 5.1-9.1 7.3-12.4 8.7-12.8 15.7-33.4 15.7-46.2 0-7-4.7-24.9-8.5-32.4-5.7-11.3-15.5-19.2-39.5-31.8-12.4-6.5-16.6-7.9-29.8-10.2-14.1-2.4-46.5-2.8-54.2-.6zm57 7.5c10.9 2.2 20.8 6.4 36.9 15.9 18.5 10.9 23.6 17.4 29.1 36.8 3.6 13 3.7 16.4.6 28.5-2.8 11.1-7 20.7-13 29.8-2.4 3.7-5.7 9.3-7.4 12.6-4.3 8.6-13.3 17.6-20.7 20.7-3.3 1.4-7.7 3.3-9.8 4.2-2.1.9-5.1 1.6-6.7 1.6-1.6 0-6.1.7-10 1.5-15.1 3.2-26.4 1.9-42.8-4.8-13.9-5.7-27.5-18.8-41.7-40.2-9.6-14.4-11.5-19.4-12.2-31.9-1.7-30.5 9.2-54.7 32-70.4 9.2-6.3 11.3-6.7 36.1-6.6 15.1.1 21.3.6 29.6 2.3z"/><path d="M3963 2186.1c-8.7 1.9-13.6 2.8-21.2 4-4.7.7-7.9 1.7-8.2 2.6-.3.7-1.3 5.7-2.1 11.1-.9 5.3-2.2 12.2-3 15.3-2.5 9.4-2.1 11.1 3.8 18.1 2.9 3.5 7.5 9.1 10.1 12.5 2.7 3.5 5.3 6.3 5.8 6.3s1.9-.6 3.1-1.4c2.6-1.7 21.8-6.6 25.7-6.6 1.4 0 3.4-.6 4.3-1.3 3.2-2.5 7.8-18.3 9.1-31.9l.6-5.7-7.9-9.8c-4.3-5.4-8-10.7-8.2-11.8-.5-2.4-4.8-2.9-11.9-1.4zm9.6 9.6c1.5 2.1 4.9 6.3 7.5 9.3l4.7 5.5-1.3 8.5c-1.5 9.7-3.1 16.4-5.1 20.1-1 2.1-2.3 2.7-6.1 3.3-2.6.3-9 1.8-14.2 3.3l-9.5 2.6-2.5-3.3c-1.4-1.9-5-6.3-8-9.8l-5.4-6.5 1.3-6.1c.7-3.3 2-10.3 2.9-15.4 1-6 2.1-9.6 3.1-10.2.8-.4 4.9-1.4 9-2 4.1-.7 9.5-1.5 12-2 8-1.3 8.6-1.2 11.6 2.7zM2086.6 2196.4c-2.1 7-2 7.6.7 7.7 6.4.3 8.7-1.4 8.7-6.4 0-4.4-1.7-6.7-5-6.7-2.6 0-3 .5-4.4 5.4zM2133.4 2200c-2.4.9-3.9 4.8-5 12.5-.4 2.7-1.3 6.7-2 8.9-1.5 4.3-.9 14.6 1 15.8.6.4 2.3.8 3.7.8 2.7 0 3.2-.7 5.8-8.9 1.3-4.2 2.6-14.7 2.6-22 0-6.1-2.2-8.6-6.1-7.1zM2269.6 2229c-.4 2.8-.9 5.7-1.2 6.5-.9 2.2 3.7 1.9 8.5-.6 4.1-2.1 5.6-4.4 4.6-7.1-.8-2-4.8-3.8-8.4-3.8-2.7 0-2.9.3-3.5 5zM1818.2 2534.7c-2.4 1-6.2 11.4-6.8 18.7-.7 8.5 1.5 13.9 5.8 14.4 2.1.3 2.8-.3 4.1-3.6 4.9-12.3 6.1-24.8 2.7-28.2-2-2-3.3-2.3-5.8-1.3zM1931.3 2557.2c-1 1.1-5.3 21.2-5.3 24.5 0 1.1 5.8 3.3 8.7 3.3.7 0 1.5-1.7 1.8-3.8.3-2 1.4-8.2 2.4-13.7s1.8-10.1 1.7-10.2c-.1-.1-2-.5-4.2-.8-2.8-.5-4.3-.3-5.1.7zM2344.2 2580.9c-1.2 2.7-2.2 5.2-2.2 5.5 0 .3 1.4.6 3 .6 3 0 3.1-.1 2.9-4.5-.4-6.7-1.4-7.2-3.7-1.6zM2380.2 2578.5c-1.7 6.3-1.6 6.5 2.4 6.5 4.7 0 6.5-2.2 5.3-6.4-1.8-6.2-6-6.3-7.7-.1z"/></svg>